<svg preserveAspectRatio="none" width="100%" height="100%" overflow="visible" style="display: block;" viewBox="0 0 89.8275 18.585" fill="none" xmlns="http://www.w3.org/2000/svg">
<g id="Frame 128">
<path id="Vector" fill-rule="evenodd" clip-rule="evenodd" d="M5.55234 0H13.1093C16.1692 0 18.6601 2.48079 18.6597 5.52911V13.0559C18.6597 16.1038 16.1688 18.585 13.1089 18.585H5.55234C2.48969 18.585 0 16.1038 0 13.0559V5.52911C0 2.48079 2.48969 0 5.55234 0ZM15.2139 11.6594L15.2209 11.5766H16.5364V12.1678C16.5364 13.1422 16.4255 13.7345 16.1537 14.2119C15.8468 14.7498 15.2494 15.0846 14.5933 15.0846C13.9631 15.0846 13.3772 14.7786 12.986 14.2445C12.7442 13.9136 12.5422 13.4715 12.3416 12.8247C11.8638 13.4799 11.3583 13.9845 10.8043 14.3488C9.94687 14.9136 9.02217 15.2004 8.05315 15.2004C6.38996 15.2004 5.12027 14.6655 4.05849 13.5171C3.04056 12.4182 2.52429 10.9597 2.52429 9.18393C2.52429 7.58965 3.06793 6.15597 4.09698 5.03863C5.13108 3.91447 6.43964 3.34468 7.98652 3.34468C9.10723 3.34468 10.0354 3.70469 10.8247 4.4436C11.2774 4.86803 11.6852 5.47196 11.9404 6.01527C11.9539 6.04322 11.9669 6.07242 11.9797 6.10192C12.2349 4.89335 12.5179 3.56476 12.5179 3.56476H15.5812C15.5812 3.56476 13.967 9.2307 13.4438 10.9995C13.6286 11.506 13.8111 11.7855 14.0139 12.0183C14.1829 12.2131 14.3901 12.3081 14.6477 12.3081C14.9845 12.3081 15.1874 11.9818 15.2139 11.6594ZM8.33228 13.7438C9.01525 13.7438 9.62156 13.3864 10.0859 12.7092C10.5425 12.0444 10.9182 10.8902 11.3025 8.98112C10.9964 7.5689 10.569 6.47037 10.0636 5.80549C9.59193 5.18591 9.04954 4.89831 8.35459 4.89831C7.57381 4.89831 6.99479 5.24112 6.53279 5.97539C6.04116 6.75758 5.79174 7.85309 5.79174 9.23148C5.79174 10.7349 6.02694 11.8864 6.49166 12.6548C6.93477 13.3887 7.53649 13.7438 8.33228 13.7438ZM28.0019 3.83385C27.7902 2.88408 27.1889 2.22075 25.8691 2.22075C24.6275 2.22075 23.9473 2.88408 23.7355 3.83385L22.7773 8.13295H23.8017C24.0354 8.13295 24.2679 7.94733 24.318 7.71998L24.5117 6.84532H27.2262L27.4202 7.71998C27.4703 7.94695 27.7024 8.13295 27.9361 8.13295H28.9609L28.0019 3.83385ZM24.78 5.63373L25.1176 4.11108C25.1719 3.86491 25.3644 3.48879 25.8695 3.48879C26.3742 3.48879 26.5663 3.86452 26.6214 4.11108L26.9587 5.63373H24.78ZM33.7714 3.65675H31.4861V6.19585C31.4861 7.41596 30.7862 8.13334 29.8183 8.13334H29.5492L29.2866 6.89333L29.5765 6.82433C29.8903 6.76184 30.0708 6.51335 30.0708 6.12298V3.20584C30.0708 2.74075 30.4535 2.36037 30.9197 2.36037H35.1858V8.13295H33.7714V3.65675ZM47.4812 2.3603H46.9657V1.6893H45.9755C45.7418 1.6893 45.5508 1.87832 45.5508 2.11141V2.3603H45.0354C43.2867 2.3603 42.1938 3.54741 42.1938 5.24639C42.1938 6.94576 43.2867 8.13287 45.0354 8.13287H45.5508V8.8326H46.5411C46.7747 8.8326 46.9657 8.64241 46.9657 8.41087V8.13287H47.4812C49.2298 8.13287 50.3224 6.94576 50.3224 5.24639C50.3224 3.54741 49.2298 2.3603 47.4812 2.3603ZM45.0354 6.85794C44.0667 6.85794 43.6086 6.2475 43.6086 5.24639C43.6086 4.24598 44.0667 3.63561 45.0354 3.63561H45.5508V6.85794H45.0354ZM47.4812 6.85794H46.9657V3.63561H47.4812C48.4502 3.63561 48.9069 4.24598 48.9069 5.24639C48.9069 6.2475 48.4498 6.85794 47.4812 6.85794ZM37.5459 3.82417H39.5763C40.9592 3.82417 41.7384 4.75017 41.7384 5.97872C41.7384 7.20757 40.8099 8.13318 39.5763 8.13318H36.5557C36.3224 8.13318 36.1311 7.94299 36.1311 7.71068V2.36099H37.5459V3.82417ZM37.5459 6.83719H39.5763C39.9213 6.83719 40.324 6.52852 40.324 5.97833C40.324 5.42767 39.9213 5.12017 39.5763 5.12017H37.5459V6.83719ZM55.5988 3.83385C55.3865 2.88408 54.7855 2.22075 53.4653 2.22075C52.2251 2.22075 51.5444 2.88408 51.3319 3.83385L50.3736 8.13295H51.3989C51.6318 8.13295 51.8647 7.94733 51.914 7.71998L52.1081 6.84532H54.8228L55.0164 7.71998C55.0662 7.94695 55.2987 8.13295 55.5319 8.13295H56.5567L55.5988 3.83385ZM52.3772 5.63373L52.7133 4.11108C52.7691 3.86491 52.9615 3.48879 53.4653 3.48879C53.9707 3.48879 54.1619 3.86452 54.2179 4.11108L54.5546 5.63373H52.3772ZM64.2114 12.1982C64.2114 12.6603 64.0504 12.9935 63.8008 13.2381C64.1632 13.5195 64.4089 13.9229 64.4089 14.4378C64.4089 15.4609 63.6897 16.2331 62.6058 16.2331L58.9281 16.2323C58.6949 16.2323 58.5044 16.0421 58.5044 15.8098V10.8823C58.5044 10.6495 58.6949 10.4597 58.9281 10.4597H62.3873C63.4152 10.4597 64.2114 11.1752 64.2114 12.1982ZM62.8313 12.227C62.8313 11.8681 62.5739 11.658 62.3858 11.658V11.6576H59.8907V12.7956H62.3858C62.5739 12.773 62.8313 12.5886 62.8313 12.227ZM59.8899 15.0352H62.4993C62.6874 15.0352 62.9448 14.8239 62.9448 14.4655C62.9448 14.1035 62.6874 13.9195 62.4993 13.8964H59.8899V15.0352ZM54.4551 10.3271C52.7059 10.3271 51.4832 11.5675 51.4832 13.3463C51.4832 15.1242 52.7055 16.3658 54.4551 16.3658H54.9395C56.6889 16.3658 57.9111 15.1242 57.9111 13.3463C57.9111 11.5675 56.6889 10.3271 54.9395 10.3271H54.4551ZM53.0112 13.3463C53.0112 12.311 53.5656 11.5196 54.5406 11.5196H54.8547C55.8289 11.5196 56.3825 12.311 56.3825 13.3463C56.3825 14.3815 55.8289 15.1737 54.8547 15.1737H54.5406C53.5648 15.1733 53.0112 14.3815 53.0112 13.3463ZM28.0506 10.4601L28.0505 10.4597V10.4601H28.0506ZM28.2369 11.3328L28.0506 10.4601H33.4635L33.2772 11.3332C33.2279 11.5659 32.9966 11.7557 32.7636 11.7557H31.4858V16.2319H30.0706V11.7553H28.7516C28.5183 11.7553 28.2866 11.5655 28.2369 11.3328ZM75.7109 10.4597V12.7519H72.9577V10.4597H71.5426V16.2323H72.9577V13.99H75.7109V16.2323H77.126V10.4597H75.7109ZM42.3845 10.3213C43.7053 10.3213 44.3056 10.9839 44.5177 11.934L45.4759 16.2323H44.4514C44.2178 16.2323 43.9848 16.0475 43.9352 15.8202L43.7416 14.9451H41.0278L40.8345 15.8202C40.784 16.0475 40.552 16.2323 40.3182 16.2323H39.2934L40.2524 11.934C40.4638 10.9843 41.1448 10.3213 42.3845 10.3213ZM41.2966 13.7328L41.6333 12.2105C41.688 11.9647 41.8801 11.5882 42.3853 11.5882C42.8903 11.5882 43.0825 11.9647 43.1375 12.2113L43.4743 13.7328H41.2966ZM69.9596 11.934C69.7465 10.9839 69.1463 10.3213 67.8253 10.3213C66.5844 10.3213 65.9048 10.9843 65.6925 11.934L64.7346 16.2323H65.7594C65.9927 16.2323 66.2251 16.0475 66.2749 15.8202L66.4693 14.9451H69.1836L69.378 15.8202C69.4285 16.0475 69.6602 16.2323 69.8927 16.2323H70.919L69.9596 11.934ZM66.7368 13.7328L67.0742 12.2105C67.1302 11.9647 67.3214 11.5882 67.8253 11.5882C68.3299 11.5882 68.5227 11.9647 68.5779 12.2113L68.9146 13.7328H66.7368ZM28.4909 16.2331V16.2166L28.2895 15.3489C28.2372 15.1219 28.0027 14.9371 27.7699 14.9371H25.7267C24.832 14.9371 24.2992 14.2718 24.2992 13.3466C24.2992 12.421 24.8324 11.7561 25.7267 11.7561H27.0984C27.3321 11.7561 27.5661 11.5717 27.6185 11.3447L27.8237 10.4601H25.7267C24.0536 10.4601 22.8843 11.6468 22.8843 13.3462C22.8843 15.0463 24.0532 16.2331 25.7267 16.2331H28.4909ZM37.2564 10.4597L34.2362 10.4601C34.0021 10.4601 33.8116 10.6503 33.8116 10.8827V16.2327H35.2268V14.7683H37.2564C38.6409 14.7683 39.4197 13.8423 39.4197 12.6146C39.4197 11.3865 38.49 10.4597 37.2564 10.4597ZM37.2564 13.4727H35.2268V11.7573H37.2564C37.6018 11.7573 38.0049 12.0644 38.0049 12.615C38.0049 13.1648 37.6018 13.4727 37.2564 13.4727ZM86.0721 15.0137H89.12C89.3719 15.0137 89.5694 15.1242 89.6386 15.4259L89.8275 16.2327H85.0823C84.849 16.2327 84.6578 16.0417 84.6578 15.8093V10.8818C84.6578 10.6491 84.849 10.4593 85.0823 10.4593H89.8275L89.6386 11.2661C89.5694 11.5682 89.3711 11.6779 89.12 11.6779H86.0721V12.7917H89.3859V13.9052H86.0721V15.0137ZM78.0963 16.2323V10.4597H79.5114V14.2683L81.9629 10.8002C82.1005 10.6131 82.4037 10.4597 82.6393 10.4597H83.6882V16.2323H82.2723V12.4241L79.8208 15.8918C79.6832 16.079 79.3792 16.2323 79.1452 16.2323H78.0963ZM51.7193 10.4601L49.7443 13.3155L51.7613 16.2323H50.4196C50.1389 16.2323 49.9414 16.148 49.7678 15.8762L48.7156 14.2301H48.5273L47.4744 15.8762C47.3015 16.148 47.104 16.2323 46.8222 16.2323H45.5229L47.4979 13.3766L45.4806 10.4601H46.8222C47.1044 10.4601 47.3015 10.5449 47.4744 10.8163L48.5273 12.462H48.7156L49.7678 10.8163C49.9414 10.5453 50.1389 10.4601 50.4196 10.4601H51.7193Z" fill="var(--fill-0, #4D3B3B)" fill-opacity="0.6"/>
</g>
</svg>
