<svg width="68" height="20" viewBox="0 0 68 20" fill="none" xmlns="http://www.w3.org/2000/svg">
<g clip-path="url(#clip0_23860_26446)">
<path d="M20 10C20 4.47715 15.5228 0 10 0C4.47715 0 0 4.47715 0 10C0 15.5228 4.47715 20 10 20C15.5228 20 20 15.5228 20 10Z" fill="#EB5757"/>
<path d="M14 17H11.6329V4.89504H10.5785C8.64564 4.89504 7.63313 5.8944 7.63313 7.38602C7.63313 9.07837 8.33143 9.86247 9.77613 10.8617L10.9666 11.6913L7.54512 16.9979H5L8.07935 12.2603C6.3086 10.9527 5.31212 9.67625 5.31212 7.52251C5.31212 4.83091 7.12697 3 10.5624 3H13.984V16.9959H14V17Z" fill="white"/>
</g>
<g clip-path="url(#clip1_23860_26446)">
<path d="M16 0H36V10.06C36 12.635 34.625 15.02 32.39 16.31L26 20L19.61 16.31C18.5128 15.6765 17.6016 14.7655 16.968 13.6685C16.3343 12.5714 16.0005 11.3269 16 10.06V0Z" fill="#FFDD2D"/>
<path fill-rule="evenodd" clip-rule="evenodd" d="M21.4913 5.29492V8.42492C21.7666 8.15383 22.0945 7.94208 22.4549 7.80276C22.8152 7.66344 23.2003 7.59951 23.5863 7.61492H24.5513V11.2499C24.5513 12.2149 24.2863 13.0649 23.9013 13.5299H28.1013C27.7113 13.0649 27.4513 12.2199 27.4513 11.2499V7.61492H28.4163C29.3063 7.61492 30.0863 7.93992 30.5163 8.42492V5.29492H21.4863H21.4913Z" fill="#333333"/>
</g>
<g clip-path="url(#clip2_23860_26446)">
<path d="M52 10C52 4.47715 47.5228 0 42 0C36.4772 0 32 4.47715 32 10C32 15.5228 36.4772 20 42 20C47.5228 20 52 15.5228 52 10Z" fill="white"/>
<path d="M34.3516 9.36459C34.3516 7.81697 34.9664 6.33274 36.0607 5.23841C37.155 4.14408 38.6392 3.5293 40.1869 3.5293H43.8104C45.358 3.5293 46.8422 4.14408 47.9366 5.23841C49.0309 6.33274 49.6457 7.81697 49.6457 9.36459C49.6457 10.9122 49.0309 12.3964 47.9366 13.4908C46.8422 14.5851 45.358 15.1999 43.8104 15.1999H40.1869C38.6392 15.1999 37.155 14.5851 36.0607 13.4908C34.9664 12.3964 34.3516 10.9122 34.3516 9.36459Z" fill="white"/>
<path fill-rule="evenodd" clip-rule="evenodd" d="M43.8104 5.14106H40.1869C39.0659 5.14106 37.9909 5.58635 37.1983 6.37897C36.4057 7.17158 35.9604 8.2466 35.9604 9.36753C35.9604 10.4885 36.4057 11.5635 37.1983 12.3561C37.9909 13.1487 39.0659 13.594 40.1869 13.594H43.8104C44.9313 13.594 46.0063 13.1487 46.799 12.3561C47.5916 11.5635 48.0369 10.4885 48.0369 9.36753C48.0369 8.2466 47.5916 7.17158 46.799 6.37897C46.0063 5.58635 44.9313 5.14106 43.8104 5.14106ZM40.1869 3.5293C38.6392 3.5293 37.155 4.14408 36.0607 5.23841C34.9664 6.33274 34.3516 7.81697 34.3516 9.36459C34.3516 10.9122 34.9664 12.3964 36.0607 13.4908C37.155 14.5851 38.6392 15.1999 40.1869 15.1999H43.8104C45.358 15.1999 46.8422 14.5851 47.9366 13.4908C49.0309 12.3964 49.6457 10.9122 49.6457 9.36459C49.6457 7.81697 49.0309 6.33274 47.9366 5.23841C46.8422 4.14408 45.358 3.5293 43.8104 3.5293H40.1869Z" fill="#58AB4A"/>
<path fill-rule="evenodd" clip-rule="evenodd" d="M37.1704 15.282V12.582H35.5586V16.1467C35.5599 16.3328 35.6089 16.5155 35.701 16.6773C35.793 16.839 35.925 16.9744 36.0844 17.0706C36.2437 17.1668 36.425 17.2205 36.611 17.2267C36.7971 17.2328 36.9815 17.1911 37.1468 17.1056L40.9645 15.1056L40.2174 13.682L37.1704 15.282Z" fill="#58AB4A"/>
<path d="M37.1719 12.1816V15.2875C37.1719 15.5463 37.4836 15.6699 37.6601 15.4816L39.7895 13.1875L37.1719 12.1816Z" fill="white"/>
<path d="M42.1365 6.23627C42.1509 6.20643 42.1735 6.18127 42.2016 6.16366C42.2296 6.14606 42.2621 6.13672 42.2953 6.13672C42.3284 6.13672 42.3609 6.14606 42.389 6.16366C42.4171 6.18127 42.4397 6.20643 42.4541 6.23627L43.3188 8.14803C43.3423 8.20686 43.4012 8.24215 43.46 8.25391L45.5423 8.48333C45.5761 8.48696 45.6082 8.50028 45.6346 8.52168C45.661 8.54307 45.6806 8.57164 45.6912 8.60395C45.7018 8.63625 45.7028 8.67092 45.6941 8.70379C45.6854 8.73665 45.6675 8.76631 45.6423 8.78921L44.0953 10.201C44.072 10.2209 44.0543 10.2466 44.044 10.2755C44.0337 10.3044 44.0311 10.3355 44.0365 10.3657L44.4659 12.4186C44.4733 12.4524 44.4706 12.4877 44.4581 12.52C44.4457 12.5523 44.424 12.5802 44.3958 12.6003C44.3676 12.6204 44.3341 12.6317 44.2995 12.6328C44.2649 12.634 44.2307 12.625 44.2012 12.6069L42.3776 11.5716C42.3515 11.5571 42.3222 11.5496 42.2923 11.5496C42.2625 11.5496 42.2332 11.5571 42.207 11.5716L40.3835 12.6069C40.3541 12.6232 40.3207 12.6308 40.2871 12.6287C40.2535 12.6267 40.2213 12.6151 40.1941 12.5953C40.1669 12.5755 40.1459 12.5484 40.1336 12.5171C40.1213 12.4858 40.1182 12.4516 40.1247 12.4186L40.5541 10.3598C40.5584 10.3305 40.5553 10.3006 40.545 10.2729C40.5347 10.2451 40.5176 10.2204 40.4953 10.201L38.9482 8.78921C38.9231 8.76631 38.9051 8.73665 38.8965 8.70379C38.8878 8.67092 38.8888 8.63625 38.8994 8.60395C38.9099 8.57164 38.9296 8.54307 38.956 8.52168C38.9824 8.50028 39.0144 8.48696 39.0482 8.48333L41.1306 8.24803C41.1607 8.24489 41.1895 8.23403 41.2143 8.21652C41.239 8.199 41.2588 8.17542 41.2717 8.14803L42.1365 6.24215V6.23627Z" fill="#58AB4A"/>
</g>
<g clip-path="url(#clip3_23860_26446)">
<mask id="mask0_23860_26446" style="mask-type:luminance" maskUnits="userSpaceOnUse" x="48" y="0" width="20" height="20">
<path d="M48 0H68V20H48V0Z" fill="white"/>
</mask>
<g mask="url(#mask0_23860_26446)">
<path d="M57.9812 19.982C63.4937 19.982 67.9624 15.5132 67.9624 10.0008C67.9624 4.48828 63.4937 0.0195312 57.9812 0.0195312C52.4687 0.0195312 48 4.48828 48 10.0008C48 15.5132 52.4687 19.982 57.9812 19.982Z" fill="white"/>
<path d="M67.9908 10.001C67.9908 8.77144 67.7577 7.59867 67.3515 6.51086C67.2441 10.0914 63.6048 12.8636 61.4682 14.6981H66.8163C67.5639 13.2973 67.9908 11.6993 67.9908 10.001ZM64.1244 2.11701C62.4311 0.798648 60.308 0.00585938 57.9956 0.00585938C52.4752 0.00585938 48 4.48107 48 10.001C48 15.5209 52.4752 19.9961 57.9956 19.9961C60.5234 19.9961 62.8251 19.0501 64.5854 17.5024H57.3489L57.3269 15.3774C61.6871 11.5869 64.36 9.02347 64.36 6.54744C64.36 5.62723 64.0094 4.46601 62.4321 4.46601C61.183 4.46601 59.9781 5.18952 60.1971 8.21277H57.6557C57.0202 4.70749 58.9264 1.92464 62.5632 1.92464C63.127 1.92464 63.6485 1.99194 64.1244 2.11701Z" fill="#A3C626"/>
</g>
</g>
<defs>
<clipPath id="clip0_23860_26446">
<rect width="20" height="20" fill="white"/>
</clipPath>
<clipPath id="clip1_23860_26446">
<rect width="20" height="20" fill="white" transform="translate(16)"/>
</clipPath>
<clipPath id="clip2_23860_26446">
<rect width="20" height="20" fill="white" transform="translate(32)"/>
</clipPath>
<clipPath id="clip3_23860_26446">
<rect width="20" height="20" fill="white" transform="translate(48)"/>
</clipPath>
</defs>
</svg>
