<svg preserveAspectRatio="none" width="100%" height="100%" overflow="visible" style="display: block;" viewBox="0 0 20 20" fill="none" xmlns="http://www.w3.org/2000/svg">
<g id="Star">
<path id="Shape" d="M8.84026 2.44836C9.26108 1.40523 10.7379 1.40523 11.1587 2.44836L12.7731 6.45012C12.8321 6.59631 12.9685 6.69671 13.1256 6.70953L17.1807 7.04041C18.2803 7.13013 18.733 8.49631 17.9046 9.22488L14.8275 11.9313C14.7137 12.0314 14.6632 12.1856 14.6958 12.3337L15.6798 16.8062C15.9256 17.9235 14.6658 18.7566 13.7339 18.0931L10.2412 15.6062C10.0965 15.5032 9.90246 15.5032 9.75781 15.6062L6.26502 18.0931C5.33314 18.7566 4.0734 17.9235 4.3192 16.8062L5.30318 12.3337C5.33577 12.1856 5.2853 12.0314 5.17142 11.9313L2.09422 9.2249C1.26584 8.49634 1.71856 7.13012 2.81809 7.04041L6.87334 6.70952C7.03046 6.6967 7.16689 6.59631 7.22586 6.45012L8.84026 2.44836Z" fill="url(#paint0_linear_0_66)"/>
</g>
<defs>
<linearGradient id="paint0_linear_0_66" x1="9.99941" y1="1.66602" x2="9.99941" y2="18.3291" gradientUnits="userSpaceOnUse">
<stop stop-color="#FFC800"/>
<stop offset="1" stop-color="#FF9500"/>
</linearGradient>
</defs>
</svg>
