<svg width="220" height="140" viewBox="0 0 220 140" fill="none" xmlns="http://www.w3.org/2000/svg">
<rect width="220" height="140" rx="24" fill="white"/>
<path d="M29.7743 28.7662C30.1688 28.3739 30.1673 27.735 29.7709 27.3446L23.0309 20.7059C22.6357 20.3167 21.9993 20.3235 21.6125 20.7209L20.69 21.6688C20.3077 22.0616 20.3129 22.6889 20.7015 23.0753L24.9999 27.3493C25.3912 27.7385 25.3933 28.371 25.0046 28.7628L20.6922 33.1087C20.308 33.496 20.3049 34.1197 20.6854 34.5106L21.6092 35.4597C21.9973 35.8585 22.6363 35.8638 23.0309 35.4714L29.7743 28.7662Z" fill="#DC6655"/>
<line x1="73" y1="28" x2="89" y2="28" stroke="#F3F3F3" stroke-width="8" stroke-linecap="round"/>
<line x1="102" y1="28" x2="118" y2="28" stroke="#F3F3F3" stroke-width="8" stroke-linecap="round"/>
<line x1="60" y1="68" x2="160" y2="68" stroke="#F3F3F3" stroke-width="10" stroke-linecap="round"/>
<line x1="86" y1="86" x2="134" y2="86" stroke="#F3F3F3" stroke-width="10" stroke-linecap="round"/>
<line x1="131" y1="28" x2="147" y2="28" stroke="#F3F3F3" stroke-width="8" stroke-linecap="round"/>
<line x1="180" y1="28" x2="196" y2="28" stroke="#DC6655" stroke-width="8" stroke-linecap="round"/>
<path d="M40.5 133.8C40.5 129.32 40.5 127.079 41.3719 125.368C42.1389 123.863 43.3628 122.639 44.8681 121.872C46.5794 121 48.8196 121 53.3 121H166.7C171.18 121 173.421 121 175.132 121.872C176.637 122.639 177.861 123.863 178.628 125.368C179.5 127.079 179.5 129.32 179.5 133.8V140H40.5V133.8Z" fill="#F9F5F2"/>
</svg>
