<svg preserveAspectRatio="none" width="100%" height="100%" overflow="visible" style="display: block;" viewBox="0 0 60 60" fill="none" xmlns="http://www.w3.org/2000/svg">
<g id="Frame">
<path id="Vector" d="M30 52.4981C42.4264 52.4981 52.5 42.4245 52.5 29.998C52.5 17.5716 42.4264 7.49805 30 7.49805C17.5736 7.49805 7.5 17.5716 7.5 29.998C7.5 42.4245 17.5736 52.4981 30 52.4981Z" fill="url(#paint0_linear_23874_35155)"/>
<path id="Vector_2" d="M43.2573 25.847C43.2477 24.7543 41.2264 24.2583 35.994 24.2583C23.7172 24.2583 20.6025 23.7344 17.2695 20.2305C18.6718 22.3343 19.4389 26.2805 32.4152 26.0841C45.9538 25.8758 37.6945 29.5715 35.2913 33.747C39.6253 29.8828 43.2443 27.3357 43.2573 25.8628V25.847ZM26.0057 37.068C26.0053 38.0838 25.1688 38.9194 24.1519 38.9196C23.1248 38.9196 22.2942 38.0899 22.2942 37.068V37.0666C22.2942 36.0491 23.1321 35.2119 24.1509 35.2119H24.1519C25.1756 35.2119 26.0057 36.0418 26.0057 37.068ZM34.4602 37.068C34.4597 38.0838 33.6233 38.9194 32.6064 38.9196C31.5802 38.9196 30.7492 38.0899 30.7492 37.068V37.0666C30.7492 36.0491 31.587 35.2119 32.6053 35.2119H32.6064C33.63 35.2119 34.4602 36.0418 34.4602 37.068Z" fill="var(--fill-0, white)"/>
</g>
<defs>
<linearGradient id="paint0_linear_23874_35155" x1="15.6414" y1="11.4948" x2="42.1382" y2="47.4652" gradientUnits="userSpaceOnUse">
<stop stop-color="#3BC9F1"/>
<stop offset="1" stop-color="#06B7F1"/>
</linearGradient>
</defs>
</svg>
