<svg preserveAspectRatio="none" width="100%" height="100%" overflow="visible" style="display: block;" viewBox="0 0 60 60" fill="none" xmlns="http://www.w3.org/2000/svg">
<g id="Frame">
<path id="Vector" d="M25.6573 52.2405C21.7213 51.4267 18.0485 49.6112 15.1652 47.0545C7.7631 40.4902 5.47545 30.1785 9.3858 21.0031C10.3461 18.7498 11.9072 16.4632 13.8416 14.4765L15.5469 12.7251L15.6672 22.9762C15.7823 32.7882 15.8083 33.2825 16.2731 34.519C17.2031 36.9927 18.2001 38.5675 19.9164 40.2742C24.3499 44.6827 30.853 45.783 36.3813 43.06C41.5773 40.5002 44.853 34.9347 44.4725 29.313C44.2168 25.5367 42.9448 22.7677 40.1988 20.0087C38.1225 17.9225 35.6795 16.5598 33.02 16.0042C30.314 15.4388 30.4438 15.3562 30.4438 17.6432V19.6176L31.9273 19.8905C37.6725 20.9475 41.4723 26.5805 40.2748 32.2655C39.8923 34.0812 39.0393 35.6845 37.6698 37.1615C35.5885 39.406 32.6605 40.479 30.1038 40.474C25.8763 40.4657 22.3463 38.0672 20.6354 34.52C20.6354 34.52 20.1872 33.5062 20.0432 32.8797C19.1962 29.1952 19.7376 21.4391 19.7376 21.4391L19.672 10.0983L20.3425 9.75214C20.7113 9.56172 21.065 9.40592 21.1285 9.40592C21.192 9.40592 21.2726 14.6147 21.3076 20.981C21.3076 20.981 20.4934 29.3265 21.4996 32.5245C21.6447 32.986 21.9204 33.7752 21.9204 33.7752C22.8024 35.5695 24.2161 37.1477 26.053 38.0165C27.4473 38.676 28.1493 38.9745 30.212 38.9745C31.5598 38.9745 32.7538 38.5495 34.1278 37.9187C35.7473 37.175 37.605 35.203 38.2918 33.4027C40.1833 28.4422 37.5493 23.1056 32.4753 21.6175C30.4015 21.0093 30.4438 20.9758 30.4438 23.2273V25.194L31.4393 25.4597C35.0273 26.418 36.1223 31.22 33.3055 33.6875C32.3103 34.5592 31.4135 34.9447 29.8448 34.9447C28.1685 34.9447 26.5595 33.9317 25.7325 32.378C25.2355 31.4445 25.1938 30.5592 25.1938 30.1537C25.1938 26.4085 25.1125 19.6725 25.1125 19.6725L25.0453 8.11794L25.5605 7.99019C25.8438 7.91992 26.9888 7.74607 28.1053 7.60384C31.891 7.12147 37.4918 8.35852 41.2545 10.5081C46.3845 13.4388 50.266 18.4732 51.882 24.2923C52.438 26.294 52.5 26.876 52.5 30.0957C52.5 33.3012 52.4368 33.9025 51.8925 35.8605C49.6943 43.7692 44.1028 49.4227 36.1078 51.8207C34.4253 52.3252 33.637 52.4215 30.6678 52.4847C28.2718 52.5357 26.7188 52.46 25.6573 52.2405Z" fill="var(--fill-0, #C60C30)"/>
</g>
</svg>
