<svg preserveAspectRatio="none" width="100%" height="100%" overflow="visible" style="display: block;" viewBox="0 0 60 60" fill="none" xmlns="http://www.w3.org/2000/svg">
<g id="Frame">
<path id="Vector" d="M10.6781 30C10.6781 37.6641 15.0797 44.2664 21.5063 47.3644L12.3909 22.1742C11.332 24.6197 10.6781 27.2297 10.6781 30ZM43.043 29.0213C43.043 26.6588 42.1458 24.9431 41.4117 23.7225C40.433 22.0913 39.5372 20.7877 39.5372 19.1578C39.5372 17.3648 40.9238 15.7336 42.7997 15.7336H43.0444C39.6188 12.5541 35.0541 10.6781 30 10.6781C26.8024 10.7064 23.6602 11.516 20.8469 13.0363C18.0337 14.5567 15.6348 16.7417 13.8591 19.4011H15.0825C17.1216 19.4011 20.2181 19.1564 20.2181 19.1564C21.2784 19.0748 21.36 20.6231 20.3813 20.7877C20.3813 20.7877 19.3209 20.9508 18.1805 20.9508L25.192 41.8195L29.4305 29.183L26.4141 20.9494L24.375 20.7891C23.3147 20.7075 23.4778 19.1578 24.4566 19.1578C24.4566 19.1578 27.6347 19.4025 29.5106 19.4025C31.5497 19.4025 34.6463 19.1578 34.6463 19.1578C35.7066 19.0763 35.7881 20.6245 34.8094 20.7891C34.8094 20.7891 33.7491 20.9522 32.6086 20.9522L39.6188 41.7422L41.5875 35.3016C42.4031 32.6114 43.0542 30.7369 43.0542 29.0241L43.043 29.0213ZM30.3263 31.7114L24.5381 48.5063C26.2495 48.9956 28.1241 49.3219 30 49.3219C32.2823 49.3219 34.4016 48.9 36.4406 48.2616C36.3591 48.18 36.3591 48.0984 36.2775 48.0169L30.3263 31.7114ZM46.9566 20.7891L47.1197 22.7578C47.1197 24.7266 46.7934 26.9161 45.653 29.6878L39.7833 46.7259C45.4899 43.3833 49.402 37.1873 49.402 30.0141C49.3205 26.6714 48.4233 23.5734 46.9552 20.8031L46.9566 20.7891ZM30 7.5C17.6081 7.5 7.5 17.6081 7.5 30C7.5 42.3919 17.6081 52.5 30 52.5C42.3919 52.5 52.5 42.3919 52.5 30C52.5 17.6081 42.3919 7.5 30 7.5ZM30 51.5213C18.1791 51.5213 8.56031 41.9025 8.56031 30C8.56924 24.3166 10.8309 18.8685 14.8497 14.8497C18.8685 10.8309 24.3166 8.56924 30 8.56031C35.6834 8.56924 41.1315 10.8309 45.1503 14.8497C49.1691 18.8685 51.4308 24.3166 51.4397 30C51.4397 41.9025 41.8209 51.5213 30 51.5213Z" fill="var(--fill-0, #00749A)"/>
</g>
</svg>
