<svg preserveAspectRatio="none" width="100%" height="100%" overflow="visible" style="display: block;" viewBox="0 0 60 60" fill="none" xmlns="http://www.w3.org/2000/svg">
<g id="Frame">
<path id="Vector" d="M15.5363 30.1488L14.6961 29.31C11.9961 26.61 11.2156 22.83 12.1761 19.41C9.47609 18.8088 7.49609 16.4091 7.49609 13.5291C7.49609 10.2293 10.1961 7.5293 13.4959 7.5293C16.4961 7.5293 18.957 9.68929 19.4352 12.5686C22.6752 11.7881 26.2154 12.6881 28.7354 15.2088L29.0953 15.5688L24.6552 20.0091L24.2952 19.6491C22.8552 18.2091 20.5152 18.2091 19.0752 19.6491C17.6352 21.0891 17.6352 23.4291 19.0752 24.8691L29.0363 34.8296L24.5961 39.2697L19.9161 34.5897L15.5363 30.1488Z" fill="var(--fill-0, #7AC143)"/>
<path id="Vector_2" d="M20.5195 25.2306L30.48 15.2701C33.1195 12.6305 36.9607 11.7896 40.3195 12.7508C40.7393 9.81172 43.2586 7.58984 46.2595 7.58984C49.5593 7.58984 52.2593 10.2898 52.2593 13.5896C52.2593 16.6496 49.9791 19.1697 47.0393 19.5297C47.9991 22.8906 47.1588 26.6698 44.5193 29.3101L44.1593 29.6701L39.8393 25.2298L40.1993 24.8698C41.6393 23.4298 41.6393 21.0898 40.1993 19.6498C38.7593 18.2098 36.4193 18.2098 34.9793 19.6498L25.0195 29.6103L20.5195 25.2306Z" fill="var(--fill-0, #F9A541)"/>
<path id="Vector_3" d="M40.4995 47.6096C37.0795 48.6291 33.2397 47.8486 30.5397 45.1486L30.1797 44.7886L34.62 40.3484L34.98 40.7084C36.42 42.1484 38.76 42.1484 40.2 40.7084C41.64 39.2684 41.64 36.9284 40.2 35.4884L30.2387 25.53L34.679 21.0898L44.6986 31.1094C47.2186 33.6294 48.1186 37.2294 47.3388 40.5291C50.2778 40.9489 52.4997 43.4682 52.4997 46.4691C52.4997 49.7689 49.7997 52.4689 46.5 52.4689C43.4997 52.4091 41.0395 50.3096 40.4995 47.6096Z" fill="var(--fill-0, #F44321)"/>
<path id="Vector_4" d="M38.757 35.1302L28.7959 45.0893C26.2154 47.6697 22.6154 48.5093 19.3761 47.7295C18.7764 50.4295 16.3759 52.4095 13.4959 52.4095C10.1961 52.4102 7.49609 49.7102 7.49609 46.4111C7.49609 43.5916 9.47609 41.1911 12.1156 40.5914C11.2754 37.2305 12.1156 33.6305 14.6961 31.0514L15.0561 30.6914L19.4964 35.1316L19.1364 35.4916C17.6964 36.9316 17.6964 39.2716 19.1364 40.7116C20.5764 42.1516 22.9164 42.1516 24.3564 40.7116L34.3161 30.7519L38.757 35.1302Z" fill="var(--fill-0, #5091CD)"/>
</g>
</svg>
