<svg width="32" height="32" viewBox="0 0 32 32" fill="none" xmlns="http://www.w3.org/2000/svg">
<path d="M12.1604 18.7383C12.1604 18.7383 11.6858 23.038 11.6578 23.2249C11.6297 23.4119 11.9814 23.5091 12.304 23.2873C13.3512 22.5668 15.3193 20.7947 15.3193 20.7947L12.1604 18.7383Z" fill="#211E1E"/>
<path d="M23.9329 7.89632C23.3507 8.04681 18.0097 9.76143 13.1639 11.4484C8.87266 12.9422 5.31065 14.2956 4.97946 14.4394C3.90322 14.7509 2.78252 15.4274 4.54872 16.1219C5.37662 16.4813 9.43064 17.6175 9.43064 17.6175C9.43064 17.6175 20.86 11.2031 21.2047 11.0121C21.7327 10.7002 22.0769 10.9837 21.5636 11.4484C21.3364 11.6393 12.1588 18.7392 12.1588 18.7392C12.3178 18.7377 19.3977 23.4385 19.7689 23.7867C20.9877 24.6671 22 24.1879 22.2098 23.2259C22.2532 23.0524 23.3983 18.8705 24.2918 15.0003C24.938 12.2015 25.4567 9.44355 25.5841 8.83105C25.771 7.79724 25.3341 7.55172 23.9329 7.89632Z" fill="#211E1E"/>
</svg>
