<svg width="32" height="32" viewBox="0 0 32 32" fill="none" xmlns="http://www.w3.org/2000/svg">
<path d="M20.73 6.41326C21.6581 5.98593 22.7169 5.90159 23.7096 6.10682C24.5896 6.28394 25.4779 6.64099 26.1255 7.2876C26.131 8.05699 26.1305 8.82637 26.1241 9.59575C25.6154 9.59106 25.1066 9.59106 24.5979 9.59575C24.5731 9.06159 24.6309 8.50915 24.5676 7.98623C23.8623 7.52938 22.9891 7.42255 22.1737 7.53079C21.4205 7.65995 20.7449 8.08082 20.2873 8.70595C19.6231 9.59997 19.4334 10.8285 19.7565 11.8969C19.9779 12.6489 20.4756 13.3166 21.1411 13.7116C21.874 14.1516 22.7884 14.2219 23.5955 13.9717C24.2318 13.7684 24.7905 13.368 25.1946 12.826C25.6058 13.1395 26.0086 13.4628 26.4197 13.7763C25.7914 14.6281 24.9004 15.2944 23.876 15.5418C22.8255 15.8005 21.687 15.7232 20.7011 15.2607C19.8668 14.8762 19.1592 14.2531 18.6638 13.4665C18.1683 12.6799 17.9062 11.7634 17.9091 10.8279C17.912 9.89229 18.1798 8.97758 18.6801 8.19421C19.1805 7.41083 19.8919 6.79228 20.7286 6.41326M7.47362 6.22068C8.40037 6.22771 9.3285 6.21928 10.2566 6.2249C10.357 6.26988 10.346 6.41186 10.3941 6.50042C11.1325 8.69611 11.8544 10.8974 12.6093 13.0875C13.3737 10.7963 14.1446 8.50733 14.922 6.22068C15.802 6.22209 16.682 6.22771 17.562 6.21787C17.5812 6.74501 17.5648 7.27355 17.5689 7.80068L16.0866 7.80209C15.1379 10.3928 14.1946 12.9863 13.2445 15.5756C12.755 15.5685 12.2655 15.5812 11.7746 15.5699C10.8795 12.9778 9.95963 10.3942 9.06038 7.80349C8.531 7.79928 8.00025 7.80209 7.47087 7.80068C7.46996 7.27402 7.47087 6.74735 7.47362 6.22068ZM8.13225 17.559C9.07 17.5571 10.0077 17.5566 10.9455 17.5576C10.9675 18.162 11.0211 18.7665 11.0349 19.3723C11.479 18.5978 12.1693 17.947 13.0204 17.6841C13.7478 17.4367 14.5219 17.5548 15.2726 17.5295C15.2726 18.4713 15.2722 19.4131 15.2712 20.3549C14.7597 20.3521 14.2483 20.3563 13.7354 20.3535C13.7436 19.8854 13.7643 19.4173 13.7588 18.9492C13.4327 18.9536 13.1108 19.0249 12.8123 19.1589C12.5137 19.293 12.2446 19.4869 12.0208 19.7294C11.4928 20.2959 11.1683 21.0845 11.215 21.8716V25.2495H15.0636C15.0581 25.7443 15.0609 26.2391 15.0609 26.7353C12.7518 26.7363 10.4422 26.7367 8.13225 26.7367C8.14325 26.2279 8.11437 25.7162 8.14737 25.2074C8.63962 25.2256 9.13188 25.2116 9.6255 25.2158C9.62733 23.1382 9.62733 21.0606 9.6255 18.983H8.135C8.13225 18.5078 8.13775 18.0341 8.13363 17.559M16.9694 17.5576H19.9531V23.2745C19.9737 23.9085 20.1044 24.5987 20.5609 25.0626C21.049 25.5503 21.8231 25.6136 22.4446 25.3901C23.4429 25.0387 24.1249 23.9872 24.1386 22.9203V19.1193C23.6161 19.1221 23.0941 19.1221 22.5725 19.1193V17.559C23.634 17.5534 24.6941 17.5604 25.7542 17.5548C25.7721 20.1075 25.7226 22.6631 25.8148 25.2158C26.2094 25.2242 26.6054 25.2017 27 25.2298C26.9963 25.7321 26.9959 26.2344 26.9986 26.7367H24.5553C24.4686 26.2391 24.4205 25.7331 24.3243 25.2369C23.9351 26.0339 23.2311 26.6946 22.3718 26.9082C21.6587 27.0734 20.9135 27.0146 20.2336 26.7396C19.5655 26.4583 19.0249 25.9311 18.7184 25.2622C18.4379 24.6648 18.3334 23.9971 18.3306 23.3392C18.3347 21.9335 18.3279 20.5278 18.3347 19.1221C17.8782 19.1193 17.4217 19.1221 16.9666 19.1193C16.9707 18.5992 16.9666 18.0777 16.9694 17.5576ZM5 25.1736H6.5785C6.573 25.7106 6.5785 26.2462 6.57575 26.7817H5C5.00183 26.2457 5.00183 25.7101 5 25.175" fill="#211E1E"/>
</svg>
