<svg width="32" height="32" viewBox="0 0 32 32" fill="none" xmlns="http://www.w3.org/2000/svg">
<path fill-rule="evenodd" clip-rule="evenodd" d="M22.6143 16.5039C22.6143 16.5039 25.2496 12.536 25.5114 11.232C25.5986 10.7663 25.4067 10.5053 24.9529 10.5053H22.6667C22.1431 10.5053 21.9511 10.7474 21.7941 11.1014C21.7941 11.1014 20.558 13.9129 19.0541 15.6843C18.5713 16.257 18.3259 16.4294 18.0593 16.4294C17.8444 16.4294 17.7453 16.2381 17.7453 15.7216V11.1947C17.7453 10.5613 17.6754 10.375 17.1869 10.375H13.5219C13.2426 10.375 13.068 10.5483 13.068 10.7847C13.068 11.3813 13.9233 11.5159 13.9233 13.132V16.4667C13.9233 17.1373 13.8883 17.3981 13.5916 17.3981C12.8063 17.3981 10.939 14.5107 9.89189 11.232C9.68244 10.5613 9.45556 10.375 8.86213 10.375H6.57599C6.24437 10.375 6 10.6171 6 10.971C6 11.623 6.71556 14.641 9.52533 18.6836C11.4101 21.4033 13.8883 22.875 16.1221 22.875C17.4834 22.875 17.815 22.6329 17.815 22.018V19.9316C17.815 19.41 18.007 19.1864 18.2863 19.1864C18.6003 19.1864 19.1549 19.2941 20.4503 20.6581C21.986 22.223 22.0907 22.875 22.9286 22.875H25.4939C25.7557 22.875 26 22.7446 26 22.2789C26 21.6641 25.2496 20.565 24.0977 19.261C23.6266 18.5903 22.8587 17.8639 22.6143 17.5286C22.2653 17.1373 22.37 16.9137 22.6143 16.5039Z" fill="#211E1E"/>
</svg>
