<svg width="20" height="20" viewBox="0 0 20 20" fill="none" xmlns="http://www.w3.org/2000/svg">
<path fill-rule="evenodd" clip-rule="evenodd" d="M3.60842 3.03202C3.33594 3.5668 3.33594 4.26686 3.33594 5.66699V14.3337C3.33594 15.7338 3.33594 16.4339 3.60842 16.9686C3.8481 17.439 4.23056 17.8215 4.70096 18.0612C5.23574 18.3337 5.93581 18.3337 7.33594 18.3337H12.6693C14.0694 18.3337 14.7695 18.3337 15.3042 18.0612C15.7747 17.8215 16.1571 17.439 16.3968 16.9686C16.6693 16.4339 16.6693 15.7338 16.6693 14.3337V8.16699C16.6693 7.93364 16.6693 7.81696 16.6239 7.72783C16.5839 7.64943 16.5202 7.58569 16.4418 7.54574C16.3526 7.50033 16.236 7.50033 16.0026 7.50033H14.1693C12.3283 7.50033 10.8359 6.00794 10.8359 4.16699V2.33366C10.8359 2.1003 10.8359 1.98363 10.7905 1.8945C10.7506 1.8161 10.6868 1.75235 10.6084 1.71241C10.5193 1.66699 10.4026 1.66699 10.1693 1.66699H7.33594C5.93581 1.66699 5.23574 1.66699 4.70096 1.93948C4.23056 2.17916 3.8481 2.56161 3.60842 3.03202ZM6.66927 10.8337C6.66927 10.3734 7.04237 10.0003 7.5026 10.0003H12.5026C12.9628 10.0003 13.3359 10.3734 13.3359 10.8337C13.3359 11.2939 12.9628 11.667 12.5026 11.667H7.5026C7.04237 11.667 6.66927 11.2939 6.66927 10.8337ZM7.5026 13.3337C7.04237 13.3337 6.66927 13.7068 6.66927 14.167C6.66927 14.6272 7.04237 15.0003 7.5026 15.0003H10.0026C10.4628 15.0003 10.8359 14.6272 10.8359 14.167C10.8359 13.7068 10.4628 13.3337 10.0026 13.3337H7.5026Z" fill="#211E1E"/>
<path d="M12.5 2.25625C12.5 1.93081 12.7638 1.66699 13.0893 1.66699V1.66699C13.2455 1.66699 13.3954 1.72907 13.5059 1.83958L16.4941 4.82774C16.6046 4.93824 16.6667 5.08812 16.6667 5.2444V5.2444C16.6667 5.56984 16.4028 5.83366 16.0774 5.83366H14.1667C13.2462 5.83366 12.5 5.08747 12.5 4.16699V2.25625Z" fill="#211E1E"/>
</svg>
