<svg preserveAspectRatio="none" width="100%" height="100%" overflow="visible" style="display: block;" viewBox="0 0 20 20" fill="none" xmlns="http://www.w3.org/2000/svg">
<g id="Frame 235965">
<path id="Vector" d="M15.4887 7.60462H11.4378V2.59822C11.4378 2.3479 11.2758 2.09758 11.1137 1.9307C10.7896 1.68038 10.2225 1.76382 9.97946 2.09758L3.49797 11.276C3.41696 11.4429 3.33594 11.6097 3.33594 11.7766C3.33594 12.2773 3.66001 12.611 4.14612 12.611H8.19705V17.6174C8.19705 18.1181 8.52112 18.4518 9.00723 18.4518C9.25029 18.4518 9.49335 18.2849 9.65538 18.1181L16.1369 8.93966C16.2179 8.77278 16.2989 8.6059 16.2989 8.43902C16.2989 7.93838 15.9748 7.60462 15.4887 7.60462Z" stroke="var(--stroke-0, #4D3B3B)" stroke-width="2"/>
</g>
</svg>
