<svg preserveAspectRatio="none" width="100%" height="100%" overflow="visible" style="display: block;" viewBox="0 0 20 20" fill="none" xmlns="http://www.w3.org/2000/svg">
<g id="Interface / Star">
<path id="Vector (Stroke)" fill-rule="evenodd" clip-rule="evenodd" d="M8.71639 2.06939C9.22272 0.971662 10.7829 0.971658 11.2892 2.06939L13.2627 6.34782L17.9415 6.90257C19.142 7.04491 19.6241 8.52871 18.7366 9.34948L15.2774 12.5484L16.1956 17.1697C16.4312 18.3554 15.169 19.2725 14.1141 18.682L10.0028 16.3806L5.89146 18.682C4.83659 19.2725 3.5744 18.3554 3.80999 17.1697L4.72824 12.5484L1.26904 9.34948C0.381502 8.5287 0.863614 7.04491 2.06409 6.90257L6.74294 6.34782L8.71639 2.0694L9.62444 2.48824L8.71639 2.06939ZM10.0028 4.05547L8.42229 7.48201C8.21593 7.92941 7.79194 8.23745 7.30268 8.29546L3.55544 8.73976L6.32587 11.3018L5.64692 12.036L5.59976 12.0869M5.64692 12.036L6.32587 11.3018C6.68759 11.6363 6.84954 12.1347 6.75352 12.618L6.01811 16.3191L9.31084 14.476C9.74076 14.2353 10.2648 14.2353 10.6948 14.476L13.9875 16.3191L13.2521 12.618C13.1561 12.1347 13.318 11.6363 13.6797 11.3018L16.4502 8.73976L12.7029 8.29546C12.2137 8.23745 11.7897 7.92941 11.5833 7.48202L12.4914 7.06317L11.5833 7.48201L10.0028 4.05547" fill="var(--fill-0, #4D3B3B)"/>
</g>
</svg>
