<svg width="28" height="28" viewBox="0 0 28 28" fill="none" xmlns="http://www.w3.org/2000/svg">
<path d="M13.9872 18.2769C13.7152 18.2774 13.4515 18.1824 13.242 18.0085L7.4206 13.3419C7.18283 13.1438 7.03331 12.8593 7.00493 12.5508C6.97654 12.2423 7.07162 11.9351 7.26924 11.6969C7.46687 11.4586 7.75085 11.3088 8.05872 11.2803C8.36659 11.2519 8.67312 11.3472 8.91089 11.5452L13.9872 15.6052L19.0635 11.7319C19.1826 11.6349 19.3196 11.5626 19.4667 11.5189C19.6138 11.4752 19.7681 11.4611 19.9206 11.4774C20.0732 11.4936 20.221 11.54 20.3557 11.6137C20.4903 11.6874 20.6091 11.787 20.7051 11.9069C20.8118 12.0268 20.8925 12.1675 20.9423 12.3202C20.9922 12.4729 21.01 12.6343 20.9947 12.7942C20.9794 12.9541 20.9313 13.1091 20.8534 13.2495C20.7755 13.3899 20.6696 13.5127 20.5421 13.6102L14.7207 18.0785C14.5052 18.225 14.2469 18.2948 13.9872 18.2769Z" fill="#211E1E"/>
</svg>
