<svg preserveAspectRatio="none" width="100%" height="100%" overflow="visible" style="display: block;" viewBox="0 0 99.1199 18.1718" fill="none" xmlns="http://www.w3.org/2000/svg">
<g id="Group 129">
<path id="Vector" d="M9.81374 0C4.38677 0 0 4.06147 0 9.08591C0 14.1104 4.38677 18.1718 9.81374 18.1718C15.2407 18.1718 19.6275 14.1104 19.6275 9.08591C19.6275 4.06147 15.2407 0 9.81374 0ZM8.45699 12.938L7.73343 14.9059C5.01994 14.0686 3.21099 11.6819 3.21099 9.00215C3.21099 6.32246 5.01995 3.97771 7.77862 3.09841L8.50219 5.06632C6.69323 5.61067 5.51745 7.20176 5.51745 8.96027C5.42697 10.8026 6.64804 12.3937 8.45699 12.938ZM11.8037 14.9478L11.1253 12.938C12.9794 12.3937 14.2005 10.8026 14.2005 9.00215C14.2005 7.20176 12.9794 5.65255 11.1705 5.1082L11.894 3.09841C14.6528 3.93583 16.507 6.32246 16.507 9.00215C16.507 11.7656 14.6075 14.1522 11.8037 14.9478Z" fill="var(--fill-0, #4D3B3B)" fill-opacity="0.6"/>
<path id="Vector_2" d="M97.7151 11.0891L98.7848 12.3955C97.6707 13.5668 96.2876 13.8821 95.1734 13.8821C94.1028 13.8821 93.3447 13.7019 92.6762 13.3866C91.2487 12.6658 90.5349 11.2243 90.5349 9.46737C90.5349 6.80949 92.3193 4.8274 94.9497 4.8274C97.8935 4.8274 99.3201 7.03478 99.0973 9.91785H92.4081C92.4525 10.6386 92.8537 11.3144 93.4334 11.6748C93.9244 11.9901 94.5041 12.1252 95.2622 12.1252C96.1091 12.1252 96.9569 11.855 97.7151 11.0891ZM92.4525 8.34119H97.1797C97.0457 7.30504 96.1988 6.40406 94.8609 6.40406C93.4787 6.40406 92.6309 7.39516 92.4525 8.34119ZM47.546 13.6118H49.9542L46.1636 9.15205L49.9096 4.96257H47.546L44.692 8.29613H43.8446V4.96257H42.0163V13.5668H43.8446V10.1431H44.692L47.546 13.6118ZM55.3947 6.53924C53.8339 6.53924 52.8082 7.75553 52.8082 9.28723C52.8082 10.8188 53.8339 12.0351 55.3947 12.0351C56.9555 12.0351 57.9365 10.8639 57.9365 9.28723C57.9812 7.80059 57.0001 6.53924 55.3947 6.53924ZM55.7069 4.78234C58.115 4.78234 59.8987 6.67441 59.8987 9.28723C59.8987 11.855 58.1595 13.8371 55.7069 13.8371C54.5474 13.8371 53.6109 13.4316 52.942 12.7109V17.2157H51.069V5.00763H52.8974V6.04369C53.6109 5.18777 54.5474 4.78234 55.7069 4.78234ZM80.0107 5.00763H72.3849V6.71947H75.2843V13.6118H77.1565V6.71947H80.0559V5.00763H80.0107ZM40.7231 5.00763H33.0528V6.71947H35.9515V13.6118H37.8245V6.71947H40.7231V5.00763ZM30.823 9.33229C30.823 7.71047 29.7082 6.53924 28.1473 6.53924C26.6312 6.53924 25.4718 7.71047 25.4718 9.33229C25.4718 10.954 26.5866 12.1252 28.1473 12.1252C29.6636 12.1252 30.823 10.954 30.823 9.33229ZM23.5541 9.33229C23.5541 6.76453 25.5163 4.8274 28.1473 4.8274C30.7339 4.8274 32.7407 6.76453 32.7407 9.33229C32.7407 11.9 30.7785 13.8821 28.1473 13.8821C25.5609 13.8371 23.5541 11.9 23.5541 9.33229ZM89.0639 5.00763V13.6118H87.2352V8.07085L82.776 13.6118H81.3041V5.00763H83.1329V10.5486L87.592 5.00763H89.0639ZM71.0923 13.6118H69.2636V5.00763H71.0923V13.6118ZM66.3649 10.6837C66.3649 9.91786 65.8298 9.37725 65.1163 9.37725H63.2433V12.0351H65.1163C65.8298 12.0351 66.3649 11.4496 66.3649 10.6837ZM68.1934 10.6837C68.1934 12.3955 66.9447 13.6118 65.1609 13.6118H61.4149V5.00763H63.2433V7.80059H65.3393C67.1231 7.80059 68.1934 8.97182 68.1934 10.6837Z" fill="var(--fill-0, #4D3B3B)" fill-opacity="0.6"/>
</g>
</svg>
