<svg preserveAspectRatio="none" width="100%" height="100%" overflow="visible" style="display: block;" viewBox="0 0 88.9576 17.2081" fill="none" xmlns="http://www.w3.org/2000/svg">
<g id="Group">
<path id="Vector" d="M85.3272 8.14697C85.3281 8.1734 85.3238 8.19991 85.3143 8.22462C85.3048 8.24941 85.2902 8.27188 85.2712 8.29056C85.2523 8.30933 85.2291 8.32397 85.2041 8.33344C85.1791 8.34291 85.1516 8.34704 85.1249 8.34566H82.3106C82.2573 8.34342 82.2065 8.32207 82.1669 8.28548C82.1281 8.24898 82.104 8.19974 82.0997 8.14697V1.78833C82.0997 1.73565 82.1204 1.68511 82.1583 1.64783C82.1961 1.61056 82.2478 1.58964 82.3012 1.58964H85.1249C85.1783 1.58964 85.2299 1.61056 85.2678 1.64783C85.3057 1.68511 85.3272 1.73565 85.3272 1.78833V8.14697ZM88.4944 1.26181L87.6267 0.417274C87.3494 0.167443 86.993 0.0199727 86.6177 0H78.4478L78.5089 9.9353H86.6685C87.0421 9.90284 87.3959 9.75305 87.6766 9.50804L88.534 8.6437C88.7846 8.36856 88.9335 8.01869 88.9576 7.65015V2.29505C88.9335 1.92453 88.7802 1.57354 88.5246 1.3015" fill="var(--fill-0, #4D3B3B)" fill-opacity="0.6"/>
<path id="Vector_2" d="M75.8486 0.0891809H73.8315C73.7256 0.0878895 73.6206 0.107261 73.5233 0.146087C73.4252 0.184913 73.3365 0.242506 73.2608 0.315596C73.1859 0.3886 73.1265 0.475549 73.086 0.571453C73.0455 0.66727 73.024 0.770146 73.024 0.874056V4.98731L69.2215 0.337635C69.1423 0.254215 69.045 0.188872 68.9374 0.146C68.8289 0.103127 68.7127 0.0837572 68.5964 0.0891809H66.5794C66.4735 0.0878895 66.3693 0.107261 66.2712 0.146087C66.1739 0.184913 66.0844 0.242506 66.0095 0.315596C65.9346 0.3886 65.8743 0.475549 65.8338 0.571453C65.7934 0.66727 65.7727 0.770146 65.7727 0.874056V9.21972C65.7727 9.43055 65.8571 9.63269 66.0086 9.78179C66.1601 9.93082 66.365 10.0146 66.5794 10.0146H68.5964C68.8108 10.0146 69.0157 9.93082 69.1672 9.78179C69.3179 9.63269 69.4031 9.43055 69.4031 9.21972V3.06976L73.0343 7.46117V9.18003C73.0343 9.39078 73.1196 9.593 73.2711 9.74202C73.4226 9.89113 73.6275 9.97481 73.841 9.97481H75.8589C76.0724 9.97481 76.2782 9.89113 76.4288 9.74202C76.5804 9.593 76.6656 9.39078 76.6656 9.18003V0.83437C76.6553 0.62965 76.564 0.437155 76.4108 0.297862C76.2584 0.158656 76.0569 0.0837572 75.8486 0.0891809V0.0891809Z" fill="var(--fill-0, #4D3B3B)" fill-opacity="0.6"/>
<path id="Vector_3" d="M60.3458 8.18652C60.3458 8.2392 60.3243 8.28974 60.2864 8.32701C60.2485 8.36429 60.1969 8.38521 60.1435 8.38521H57.3198C57.2664 8.38521 57.2147 8.36429 57.1769 8.32701C57.139 8.28974 57.1183 8.2392 57.1183 8.18652V1.82797C57.1183 1.77519 57.139 1.72466 57.1769 1.68747C57.2147 1.65019 57.2664 1.62918 57.3198 1.62918H60.1435C60.1969 1.62918 60.2485 1.65019 60.2864 1.68747C60.3243 1.72466 60.3458 1.77519 60.3458 1.82797V8.18652ZM63.9762 9.18007V0.844309C63.9762 0.633563 63.8918 0.431339 63.7403 0.282319C63.5888 0.133212 63.3839 0.0495328 63.1695 0.0495328H54.2937C54.0794 0.0495328 53.8745 0.133212 53.723 0.282319C53.5715 0.431339 53.4871 0.633563 53.4871 0.844309V9.18007C53.4871 9.39082 53.5715 9.59304 53.723 9.74206C53.8745 9.89108 54.0794 9.97485 54.2937 9.97485H63.1695C63.3839 9.97485 63.5888 9.89108 63.7403 9.74206C63.8918 9.59304 63.9762 9.39082 63.9762 9.18007Z" fill="var(--fill-0, #4D3B3B)" fill-opacity="0.6"/>
<path id="Vector_4" d="M50.8847 0.0893683H48.8674C48.754 0.0885935 48.6414 0.111149 48.5374 0.155657C48.433 0.200165 48.3394 0.265506 48.2623 0.347635L44.8331 4.50058L41.4745 0.397308C41.3942 0.297531 41.2912 0.21764 41.1735 0.164179C41.0563 0.110717 40.9278 0.0850638 40.7987 0.0893683H38.7814C38.6759 0.0879909 38.5711 0.107361 38.4733 0.146187C38.3756 0.185013 38.2867 0.242693 38.2114 0.315696C38.1364 0.3887 38.0768 0.47565 38.0363 0.571553C37.9955 0.667456 37.9746 0.770334 37.9746 0.874243V9.21991C37.9746 9.43065 38.0596 9.63279 38.211 9.78189C38.362 9.93092 38.5675 10.0147 38.7814 10.0147H40.7987C41.0125 10.0147 41.218 9.93092 41.369 9.78189C41.5204 9.63279 41.6054 9.43065 41.6054 9.21991V3.06995L44.0264 6.05053V9.21991C44.0264 9.43065 44.1113 9.63279 44.2623 9.78189C44.4137 9.93092 44.6189 10.0147 44.8331 10.0147C45.0472 10.0147 45.2523 9.93092 45.4038 9.78189C45.5548 9.63279 45.6398 9.43065 45.6398 9.21991V6.05053L48.0607 3.06995V9.18013C48.0607 9.39088 48.1457 9.5931 48.2971 9.74212C48.4481 9.89114 48.6536 9.97491 48.8674 9.97491H50.8847C51.0986 9.97491 51.3037 9.89114 51.4551 9.74212C51.6065 9.5931 51.6915 9.39088 51.6915 9.18013V0.83447C51.6915 0.73056 51.6707 0.627683 51.6298 0.53178C51.5893 0.435876 51.5297 0.348927 51.4547 0.275923C51.3794 0.20292 51.2905 0.145325 51.1925 0.106412C51.095 0.0675862 50.9902 0.0483023 50.8847 0.0495936" fill="var(--fill-0, #4D3B3B)" fill-opacity="0.6"/>
<path id="Vector_5" d="M32.5475 8.18651C32.5475 8.2392 32.5262 8.28974 32.4884 8.32701C32.4505 8.36429 32.3993 8.38521 32.3457 8.38521H29.5217C29.4682 8.38521 29.4168 8.36429 29.379 8.32701C29.3412 8.28974 29.32 8.2392 29.32 8.18651V1.82797C29.32 1.77519 29.3412 1.72466 29.379 1.68747C29.4168 1.65019 29.4682 1.62918 29.5217 1.62918H32.3457C32.3993 1.62918 32.4505 1.65019 32.4884 1.68747C32.5262 1.72466 32.5475 1.77519 32.5475 1.82797V8.18651ZM35.7447 1.32124L34.8874 0.466808C34.6058 0.224209 34.2519 0.0778561 33.8788 0.0495328H25.689V10.0245H33.8486C34.2216 9.99628 34.5755 9.84985 34.8571 9.60725L35.7145 8.75281C35.9711 8.48086 36.1244 8.12987 36.148 7.75925V2.3346C36.1244 1.96407 35.9711 1.61309 35.7145 1.34113" fill="var(--fill-0, #4D3B3B)" fill-opacity="0.6"/>
<path id="Vector_6" d="M16.6222 1.82797C16.6208 1.80231 16.6248 1.77666 16.6338 1.75264C16.6428 1.72853 16.6567 1.70658 16.6746 1.68798C16.6926 1.66939 16.7141 1.65458 16.7381 1.64451C16.762 1.63435 16.7878 1.62918 16.8138 1.62918H20.0414C20.0949 1.62918 20.1462 1.65019 20.184 1.68747C20.2218 1.72466 20.2431 1.77519 20.2431 1.82797V5.26551C20.2431 5.3182 20.2218 5.36873 20.184 5.40601C20.1462 5.44328 20.0949 5.46429 20.0414 5.46429H16.8138C16.7878 5.46429 16.762 5.45912 16.7381 5.44897C16.7141 5.43889 16.6926 5.42408 16.6746 5.40549C16.6567 5.38689 16.6428 5.36485 16.6338 5.34084C16.6248 5.31673 16.6208 5.29116 16.6222 5.26551V1.82797ZM23.0672 8.38521H16.8138C16.7878 8.3853 16.762 8.38004 16.7381 8.36997C16.7141 8.3599 16.6926 8.34509 16.6746 8.3265C16.6567 8.30782 16.6428 8.28586 16.6338 8.26176C16.6248 8.23774 16.6208 8.21208 16.6222 8.18652V7.25262C16.6208 7.22697 16.6248 7.2014 16.6338 7.17729C16.6428 7.15327 16.6567 7.13123 16.6746 7.11264C16.6926 7.09404 16.7141 7.07924 16.7381 7.06917C16.762 7.05909 16.7878 7.05384 16.8138 7.05393H23.0672C23.2812 7.05393 23.4864 6.97016 23.6378 6.82106C23.789 6.67204 23.8741 6.46981 23.8741 6.25906V0.844309C23.8741 0.633563 23.789 0.431339 23.6378 0.282319C23.4864 0.133212 23.2812 0.0495328 23.0672 0.0495328H13.7981C13.5841 0.0495328 13.3789 0.133212 13.2275 0.282319C13.0763 0.431339 12.9912 0.633563 12.9912 0.844309V9.18007C12.9912 9.39082 13.0763 9.59304 13.2275 9.74206C13.3789 9.89108 13.5841 9.97485 13.7981 9.97485H23.0672C23.2812 9.97485 23.4864 9.89108 23.6378 9.74206C23.789 9.59304 23.8741 9.39082 23.8741 9.18007C23.8741 8.96924 23.789 8.7671 23.6378 8.618C23.4864 8.46898 23.2812 8.38521 23.0672 8.38521Z" fill="var(--fill-0, #4D3B3B)" fill-opacity="0.6"/>
<path id="Vector_7" d="M7.66538 5.2653C7.66538 5.31799 7.64412 5.36852 7.60633 5.4058C7.56845 5.44308 7.51714 5.46391 7.46368 5.46391H3.83269C3.77923 5.46391 3.72784 5.44308 3.69004 5.4058C3.65225 5.36852 3.63099 5.31799 3.63099 5.2653V1.82767C3.63099 1.77499 3.65225 1.72437 3.69004 1.68718C3.72784 1.6499 3.77923 1.62898 3.83269 1.62898H7.46368C7.51714 1.62898 7.56845 1.6499 7.60633 1.68718C7.64412 1.72437 7.66538 1.77499 7.66538 1.82767V5.2653ZM11.2055 9.03076L9.55151 7.04365H10.4895C10.7035 7.04365 10.9087 6.95997 11.0601 6.81086C11.2114 6.66184 11.2964 6.45962 11.2964 6.24887V0.834118C11.286 0.631205 11.1961 0.440173 11.0455 0.301139C10.895 0.162191 10.6957 0.086174 10.4895 0.0889289H0.806916C0.70137 0.0876375 0.596683 0.107009 0.498886 0.145835C0.401002 0.184661 0.311987 0.24234 0.236917 0.315344C0.161848 0.388348 0.102276 0.475297 0.0616415 0.571201C0.0209213 0.667018 0 0.769981 0 0.873891V9.21947C0 9.4303 0.0849716 9.63244 0.236317 9.78154C0.387661 9.93056 0.592898 10.0143 0.806916 10.0143H2.82407C3.03809 10.0143 3.24333 9.93056 3.39467 9.78154C3.54593 9.63244 3.63099 9.4303 3.63099 9.21947V7.04365H5.04302L7.43337 10.0242H11.0038C11.4779 9.94477 11.5687 9.55728 11.2055 9.11022" fill="var(--fill-0, #4D3B3B)" fill-opacity="0.6"/>
<path id="Vector_8" d="M88.9391 14.9426H81.959V15.7374H88.9391V14.9426Z" fill="var(--fill-0, #4D3B3B)" fill-opacity="0.6"/>
<path id="Vector_9" d="M28.7963 14.1083H27.7372C27.7372 13.8401 27.6464 13.7009 27.2027 13.7009H25.4174C25.1149 13.7009 24.9131 13.8202 24.9131 14.148C24.9131 14.4759 25.125 14.5951 25.4174 14.5951H27.3338C28.3424 14.5951 28.7761 14.6945 28.7761 15.8966C28.7761 16.8106 28.3726 17.2081 27.3338 17.2081H25.2258C24.1063 17.2081 23.7735 16.8206 23.7735 15.9861H24.782C24.7996 16.1073 24.8639 16.2172 24.9615 16.2931C25.0592 16.3689 25.1827 16.4048 25.3065 16.3934H27.0615C27.5254 16.3934 27.6969 16.2444 27.6969 15.8966C27.6969 15.5489 27.6364 15.4098 27.0312 15.4098H25.5183C24.3181 15.4098 23.8843 15.2012 23.8843 14.1083C23.8843 13.234 24.3382 12.8863 25.5082 12.8863H27.2935C28.3525 12.8863 28.7963 13.2737 28.7963 14.1083V14.1083Z" fill="var(--fill-0, #4D3B3B)" fill-opacity="0.6"/>
<path id="Vector_10" d="M31.5695 12.8863L33.0219 16.3537H33.0823L34.5448 12.8863H36.5117V17.2081H35.4424V13.7407H35.3114L33.7985 17.2081H32.3057L30.8029 13.7407H30.6617V17.2081H29.6531V12.8863H31.5695Z" fill="var(--fill-0, #4D3B3B)" fill-opacity="0.6"/>
<path id="Vector_11" d="M36.9152 17.2081L39.245 12.8863H40.7981L43.1078 17.2081H41.8775L41.3125 16.1152H38.7105L38.1455 17.2081H36.9152ZM40.8889 15.3006L40.0516 13.691L39.1843 15.3006H40.8889Z" fill="var(--fill-0, #4D3B3B)" fill-opacity="0.6"/>
<path id="Vector_12" d="M47.3836 17.2081V16.5425C47.3836 16.1152 47.1616 15.9264 46.5464 15.9264H44.5291V17.2081H43.5208V12.8863H46.7985C47.7064 12.8863 48.3618 13.1744 48.3618 14.4064C48.3791 14.6353 48.3266 14.8642 48.2119 15.064C48.0968 15.2638 47.9246 15.4256 47.7165 15.529C48.1602 15.6781 48.4325 15.847 48.4325 16.3139V17.2081H47.3836ZM44.509 15.0621H46.7078C47.1616 15.0621 47.313 14.8733 47.313 14.4064C47.313 13.9394 47.1717 13.7407 46.7078 13.7407H44.509V15.0621Z" fill="var(--fill-0, #4D3B3B)" fill-opacity="0.6"/>
<path id="Vector_13" d="M53.6564 12.8863V13.7407H51.8309V17.2081H50.8222V13.7407H48.9361V12.8863H53.6564Z" fill="var(--fill-0, #4D3B3B)" fill-opacity="0.6"/>
<path id="Vector_14" d="M57.3608 14.5455H60.0734V12.8863H61.0824V17.2081H60.0734V15.3999H57.3608V17.2081H56.301V12.8863H57.3608V14.5455Z" fill="var(--fill-0, #4D3B3B)" fill-opacity="0.6"/>
<path id="Vector_15" d="M65.3483 17.2075H63.4113C62.2414 17.2075 61.798 16.7802 61.798 15.7371V14.376C61.798 13.1837 62.2216 12.836 63.4113 12.836H65.3483C66.4373 12.836 66.9315 13.1539 66.9315 14.376V15.7371C66.9315 16.81 66.5785 17.2075 65.3483 17.2075ZM63.6636 16.3531H65.0556C65.7314 16.3531 65.8821 16.2041 65.8821 15.6179V14.4654C65.8821 13.8394 65.6712 13.6904 65.0453 13.6904H63.6842C63.0282 13.6904 62.8466 13.8593 62.8466 14.4753V15.6278C62.8466 16.1941 63.0282 16.3531 63.6636 16.3531V16.3531Z" fill="var(--fill-0, #4D3B3B)" fill-opacity="0.6"/>
<path id="Vector_16" d="M69.6438 12.8863L71.097 16.3537H71.1676L72.6199 12.8863H74.5767V17.2081H73.5677V13.7407H73.4265L71.9234 17.2081H70.3807L68.8776 13.7407H68.7872V17.2081H67.7782V12.8863H69.6438Z" fill="var(--fill-0, #4D3B3B)" fill-opacity="0.6"/>
<path id="Vector_17" d="M75.3738 12.8863H79.8823V13.7009H76.4223V14.6448H79.7514V15.3999H76.4223V16.3934H79.8823V17.2081H75.3738V12.8863Z" fill="var(--fill-0, #4D3B3B)" fill-opacity="0.6"/>
</g>
</svg>
