<svg preserveAspectRatio="none" width="100%" height="100%" overflow="visible" style="display: block;" viewBox="0 0 46.061 18.9578" fill="none" xmlns="http://www.w3.org/2000/svg">
<g id="Group 25">
<path id="Vector" d="M1.69527 3.6083L1.68877 3.61887L1.68274 3.62974C1.21195 4.4755 0.939614 5.54361 0.781845 6.57247C0.622787 7.61011 0.573611 8.65352 0.573611 9.47892C0.573611 10.3042 0.622727 11.3536 0.781784 12.3942C0.939379 13.4252 1.21177 14.4958 1.68473 15.3317L1.68824 15.3379L1.69187 15.344C2.76002 17.1313 4.80114 18.3842 7.19175 18.3842H38.8692C41.2384 18.3842 43.2757 17.1294 44.3657 15.3495L44.3716 15.3407L44.3762 15.3317C44.8493 14.4958 45.1221 13.4252 45.2795 12.3942C45.4382 11.3536 45.4874 10.3042 45.4874 9.47892C45.4874 8.65364 45.4382 7.60424 45.2795 6.56362C45.1221 5.53268 44.8493 4.46209 44.3762 3.62611L44.3727 3.61994L44.3692 3.61388C43.3014 1.82653 41.2601 0.573611 38.8692 0.573611H7.19175C4.82257 0.573611 2.78555 1.82843 1.69527 3.6083Z" stroke="var(--stroke-0, #4D3B3B)" stroke-opacity="0.6" stroke-width="1.14722"/>
<path id="Vector_2" d="M28.3401 8.56625H31.0229V8.49228C31.0229 7.23521 30.5395 7.16124 29.6453 7.16124C28.5576 7.13663 28.3643 7.48172 28.3401 8.56625V8.56625ZM9.51251 7.21053C10.3826 7.21053 10.866 7.30917 10.866 8.51696V8.56625H8.23159C8.25573 7.53101 8.47325 7.21053 9.51251 7.21053ZM5.79055 9.52757C5.79055 12.4608 6.51557 13.5207 9.56085 13.5207C10.6968 13.5207 11.6152 13.4221 12.2919 13.0524C12.9204 12.6826 13.3071 12.0418 13.3071 10.8832H10.9144C10.8902 11.7213 10.3343 11.8199 9.56085 11.8199C8.44911 11.8199 8.23159 11.3516 8.23159 9.94658V9.89728H13.3071V9.52757C13.3071 6.32317 12.4611 5.50978 9.56085 5.50978C6.46724 5.50978 5.79055 6.49572 5.79055 9.52757V9.52757ZM14.9264 8.07328C14.9264 9.65083 15.4581 10.3656 18.6967 10.3656C18.9868 10.3656 19.4459 10.341 19.7118 10.4642C19.9535 10.5875 20.0744 10.8093 20.0744 11.2037C20.0744 11.8938 19.8326 11.9678 18.6726 11.9678C18.0442 11.9678 17.3916 11.9431 17.3433 11.0804H14.9264C14.9506 12.8059 15.7481 13.3728 17.2466 13.4961C17.7058 13.5207 18.1892 13.5207 18.6967 13.5207C20.7511 13.5207 22.4671 13.1756 22.4671 10.9079C22.4671 8.73879 21.3553 8.59092 18.6967 8.51696C17.3674 8.49228 17.2949 8.19653 17.2949 7.75285C17.2949 7.23521 17.3433 7.06266 18.6967 7.06266C19.1801 7.06266 19.6877 7.11195 19.7843 7.72818H22.0804V7.40776C22.0804 5.53446 20.1469 5.50978 18.6967 5.50978C16.4973 5.50978 14.9264 5.55907 14.9264 8.07328V8.07328ZM34.9382 5.50978H40.9322V7.30917H39.1438V13.4467H36.7025V7.30917H34.9141V5.50978H34.9382ZM25.9474 9.47828C25.9474 6.44643 26.5999 5.4851 29.6936 5.4851C32.5699 5.4851 33.4159 6.27388 33.4159 9.47828V9.82338H28.3401V9.89728C28.3401 11.3023 28.5576 11.7953 29.6936 11.7953C30.443 11.7953 31.0229 11.7213 31.0711 10.8586H33.4159C33.3911 11.9678 33.0291 12.6087 32.4004 12.9784C31.7481 13.3481 30.8298 13.4467 29.6936 13.4467C26.6725 13.4467 25.9474 12.4115 25.9474 9.47828V9.47828ZM4.0262 14.9257C2.79355 13.57 2.5277 11.4748 2.5277 9.47828C2.5277 7.48172 2.79355 5.38652 4.0262 4.03087C4.79961 3.1928 6.29805 2.5519 7.55484 2.5519H23.9656V16.4046H7.55484C6.27392 16.4046 4.79961 15.7638 4.0262 14.9257Z" fill="var(--fill-0, #4D3B3B)" fill-opacity="0.6"/>
</g>
</svg>
