<svg preserveAspectRatio="none" width="100%" height="100%" overflow="visible" style="display: block;" viewBox="0 0 46.061 18.9578" fill="none" xmlns="http://www.w3.org/2000/svg">
<g id="Group 25">
<path id="Vector" d="M1.69527 3.6083L1.68877 3.61887L1.68274 3.62974C1.21195 4.4755 0.939614 5.54361 0.781845 6.57247C0.622787 7.61011 0.573611 8.65352 0.573611 9.47892C0.573611 10.3042 0.622727 11.3536 0.781784 12.3942C0.939379 13.4252 1.21177 14.4958 1.68473 15.3317L1.68824 15.3379L1.69187 15.344C2.76002 17.1313 4.80114 18.3842 7.19175 18.3842H38.8692C41.2384 18.3842 43.2757 17.1294 44.3657 15.3495L44.3716 15.3407L44.3762 15.3317C44.8493 14.4958 45.1221 13.4252 45.2795 12.3942C45.4382 11.3536 45.4874 10.3042 45.4874 9.47892C45.4874 8.65364 45.4382 7.60424 45.2795 6.56362C45.1221 5.53268 44.8493 4.46209 44.3762 3.62611L44.3727 3.61994L44.3692 3.61388C43.3014 1.82653 41.2601 0.573611 38.8692 0.573611H7.19175C4.82257 0.573611 2.78555 1.82843 1.69527 3.6083Z" stroke="var(--stroke-0, #4D3B3B)" stroke-opacity="0.6" stroke-width="1.14722"/>
<path id="Vector_2" d="M28.3402 8.5663H31.023V8.49234C31.023 7.23527 30.5397 7.1613 29.6455 7.1613C28.5577 7.13668 28.3644 7.48178 28.3402 8.5663V8.5663ZM9.51264 7.21059C10.3827 7.21059 10.8661 7.30923 10.8661 8.51701V8.5663H8.23171C8.25585 7.53107 8.47337 7.21059 9.51264 7.21059ZM5.79067 9.52763C5.79067 12.4608 6.51569 13.5207 9.56097 13.5207C10.697 13.5207 11.6154 13.4222 12.2921 13.0525C12.9205 12.6827 13.3072 12.0418 13.3072 10.8833H10.9145C10.8903 11.7214 10.3344 11.82 9.56097 11.82C8.44923 11.82 8.23171 11.3516 8.23171 9.94663V9.89734H13.3072V9.52763C13.3072 6.32323 12.4612 5.50984 9.56097 5.50984C6.46736 5.50984 5.79067 6.49578 5.79067 9.52763V9.52763ZM14.9265 8.07334C14.9265 9.65089 15.4582 10.3657 18.6968 10.3657C18.9869 10.3657 19.4461 10.341 19.7119 10.4643C19.9536 10.5875 20.0745 10.8094 20.0745 11.2038C20.0745 11.8939 19.8328 11.9679 18.6727 11.9679C18.0443 11.9679 17.3917 11.9432 17.3434 11.0805H14.9265C14.9507 12.8059 15.7482 13.3729 17.2467 13.4961C17.7059 13.5207 18.1893 13.5207 18.6968 13.5207C20.7512 13.5207 22.4672 13.1756 22.4672 10.908C22.4672 8.73885 21.3554 8.59098 18.6968 8.51701C17.3675 8.49234 17.2951 8.19659 17.2951 7.75291C17.2951 7.23527 17.3434 7.06272 18.6968 7.06272C19.1802 7.06272 19.6878 7.11201 19.7844 7.72824H22.0805V7.40781C22.0805 5.53451 20.147 5.50984 18.6968 5.50984C16.4975 5.50984 14.9265 5.55913 14.9265 8.07334V8.07334ZM34.9383 5.50984H40.9323V7.30923H39.1439V13.4468H36.7026V7.30923H34.9142V5.50984H34.9383ZM25.9475 9.47834C25.9475 6.44649 26.6001 5.48516 29.6937 5.48516C32.57 5.48516 33.416 6.27394 33.416 9.47834V9.82344H28.3402V9.89734C28.3402 11.3023 28.5577 11.7953 29.6937 11.7953C30.4431 11.7953 31.023 11.7214 31.0713 10.8587H33.416C33.3913 11.9679 33.0292 12.6087 32.4005 12.9785C31.7482 13.3482 30.8299 13.4468 29.6937 13.4468C26.6726 13.4468 25.9475 12.4115 25.9475 9.47834V9.47834ZM4.02632 14.9258C2.79367 13.57 2.52782 11.4749 2.52782 9.47834C2.52782 7.48178 2.79367 5.38658 4.02632 4.03093C4.79974 3.19286 6.29818 2.55196 7.55496 2.55196H23.9657V16.4047H7.55496C6.27404 16.4047 4.79974 15.7638 4.02632 14.9258Z" fill="var(--fill-0, #4D3B3B)" fill-opacity="0.6"/>
</g>
</svg>
