<svg preserveAspectRatio="none" width="100%" height="100%" overflow="visible" style="display: block;" viewBox="0 0 58.8525 15.5786" fill="none" xmlns="http://www.w3.org/2000/svg">
<g id="Frame 127">
<path id="Vector" d="M5.22983 0C4.14231 0 2.83737 1.11426 1.77951 2.98535C0.652517 4.94056 0 7.33733 0 9.42914C0 12.4986 1.61146 15.5786 5.22983 15.5786C8.8482 15.5786 10.4597 12.4986 10.4597 9.42914C10.4597 7.33733 9.80715 4.93004 8.68015 2.99586C7.6223 1.11426 6.31726 0 5.22983 0V0ZM33.4748 4.58322H37.1327V14.7271H41.0574V4.58322H44.7151V0.830436H33.4748V4.58322ZM53.0986 4.58322H58.8525V0.830436H53.0986C47.8103 0.830436 44.9919 3.6266 44.9919 7.7893C44.9919 11.952 47.8193 14.7482 53.0986 14.7482H58.8525V10.985H53.0986C50.6468 10.985 49.0552 10.0494 49.0552 7.7893C49.0552 5.52924 50.6468 4.58322 53.0986 4.58322ZM25.4966 0.840953L23.4007 9.14532L21.3049 0.840953H14.3746V14.7587H18.2995V3.4269L21.1565 14.7376H25.6548L28.5119 3.41639V14.7376H32.4367V0.840953H25.4966Z" fill="var(--fill-0, #4D3B3B)" fill-opacity="0.6"/>
</g>
</svg>
