<svg preserveAspectRatio="none" width="100%" height="100%" overflow="visible" style="display: block;" viewBox="0 0 58.8525 16.4441" fill="none" xmlns="http://www.w3.org/2000/svg">
<g id="Frame 124">
<path id="Vector" d="M21.0854 16.0117L24.483 0.542837H28.6708L26.8449 8.76971L30.225 4.64481H34.9102L30.7081 9.80295L32.4406 16.0117H28.2622L26.5349 10.1289L25.1677 16.0117H21.0854ZM5.96402 8.23711L8.9142 16.0117H12.9271L16.387 0.542837H12.2516L10.5033 8.41197L7.60693 0.537265H3.4162L0 16.0117H4.2146C4.69346 13.5336 5.33281 10.9136 5.96402 8.23711V8.23711ZM19.0793 16.0117L21.5873 4.65121H17.4722L14.9661 16.0117H19.0793ZM17.6835 2.16331C17.6835 2.51914 17.7665 3.77967 20.0174 3.77967C21.8875 3.77967 22.6094 2.56902 22.6094 1.66505C22.6094 1.05617 22.1165 0 20.274 0C18.5764 0 17.6835 1.14789 17.6835 2.16331V2.16331ZM57.2477 4.49901C55.49 3.96731 53.31 4.84671 52.234 6.35088C52.338 5.88451 52.4501 5.34131 52.5767 4.71863H48.4029L45.9607 16.0117H50.1155L51.5007 9.60443C51.7557 8.42841 52.6924 7.92403 53.5243 8.14146C53.8823 8.23711 54.3742 8.512 54.2105 9.49435L52.8018 16.0117H56.9059L58.7875 7.31396C59.1872 5.39658 57.6275 4.61302 57.2477 4.49901V4.49901ZM43.2825 14.9865C45.0846 13.4965 45.9761 10.9791 45.9463 8.6092C45.9173 6.33088 44.0077 4.16949 40.6866 4.16949C34.3511 4.16949 33.43 9.15642 33.2451 10.0668C32.7827 12.3701 33.2975 15.356 36.2728 16.15C38.2382 16.6743 41.3069 16.6162 43.2825 14.9865ZM38.6356 8.40109C38.9343 7.57441 39.7445 7.3906 40.1116 7.38695C41.0175 7.37973 41.2662 7.92421 41.1875 8.43563C40.9696 9.85566 40.4841 11.6585 40.3023 12.2337C40.3005 12.2392 40.2987 12.2465 40.2987 12.2538C40.0989 12.8819 39.513 13.2478 38.8259 13.2478C38.1253 13.2478 37.7034 12.8038 37.763 12.2392C37.8676 11.286 38.4644 8.87706 38.6356 8.40109Z" fill="var(--fill-0, #4D3B3B)" fill-opacity="0.6"/>
</g>
</svg>
