<svg width="36" height="36" viewBox="0 0 36 36" fill="none" xmlns="http://www.w3.org/2000/svg">
<mask id="mask0_24563_65021" style="mask-type:luminance" maskUnits="userSpaceOnUse" x="0" y="0" width="36" height="36">
<path d="M36 0H0V36H36V0Z" fill="white"/>
</mask>
<g mask="url(#mask0_24563_65021)">
<path d="M24.6506 12.0887C24.0878 11.5976 23.2784 11.6087 22.814 11.7515C23.1182 11.3796 23.8268 11.0747 24.0356 11.0378C24.1946 11.0971 24.6506 11.5635 24.6506 12.0887ZM26.4476 10.0549C26.0774 8.08403 21.4761 9.38992 19.1589 8.55277C19.1144 9.12735 19.8722 10.0479 20.597 10.3886C19.358 11.4589 18.2456 13.6156 18.0212 16.2502C17.7974 13.6156 16.685 11.4589 15.4461 10.3886C16.1709 10.0479 16.9292 9.12735 16.8842 8.55277C14.567 9.38992 9.96561 8.08403 9.59485 10.0549C9.51683 10.472 9.71844 11.1076 9.93621 11.2904C9.97526 11.1582 10.1787 10.7258 10.82 10.6288C14.0618 10.1413 16.7685 15.1147 14.3252 17.1255C14.2881 17.1561 14.309 17.2125 14.3594 17.2125H21.6843C21.734 17.2125 21.755 17.1561 21.7184 17.1255C19.2746 15.1147 21.9812 10.1413 25.2231 10.6288C25.865 10.7258 26.0678 11.1582 26.1069 11.2904C26.3246 11.1076 26.5263 10.472 26.4476 10.0549ZM27.236 5.5315C27.1779 5.34528 29.0786 5.34058 29.0786 6.5249C29.0786 7.31855 27.9416 7.69455 27.9416 8.51813C27.9416 8.90175 28.3562 9.18315 28.4834 9.18315C28.1906 7.86075 29.4014 8.55277 29.7284 8.80012C29.0786 7.02187 30.5414 7.03305 30.3974 6.21765C30.2972 5.64782 29.0257 5.81994 28.5657 5.5315C27.749 5.01983 26.783 3.02893 26.1465 5.01982C27.3332 6.11662 26.6426 7.73093 25.136 7.73093C25.136 7.73093 25.1277 7.9677 25.1414 7.98652C26.9385 7.89892 27.5649 6.58424 27.236 5.5315ZM6.27085 8.80012C6.59785 8.55277 7.80861 7.86075 7.5164 9.18315C7.64306 9.18315 8.05765 8.90175 8.05765 8.51813C8.05765 7.69455 6.92064 7.31855 6.92064 6.5249C6.92064 5.34058 8.82146 5.34528 8.76326 5.5315C8.43507 6.58424 9.06146 7.89892 10.8585 7.98652C10.8716 7.9677 10.8633 7.73093 10.8633 7.73093C9.35726 7.73093 8.66661 6.11662 9.85287 5.01982C9.21624 3.02893 8.25021 5.01983 7.43364 5.5315C6.97344 5.81994 5.70205 5.64782 5.60185 6.21765C5.45844 7.03305 6.92064 7.02187 6.27085 8.80012ZM11.3732 12.0887C11.9366 11.5976 12.746 11.6087 13.2098 11.7515C12.9068 11.3796 12.197 11.0747 11.9888 11.0378C11.8298 11.0971 11.3732 11.5635 11.3732 12.0887ZM18.8763 1.06389L17.9996 0L17.1231 1.06389L17.9996 2.18358L18.8763 1.06389ZM23.8802 4.2808L23.2568 3.52475L22.634 4.2808L23.2568 5.01982L23.8802 4.2808ZM28.9364 26.1355L28.1463 25.303L27.3561 26.1355L28.1463 26.8657L28.9364 26.1355ZM13.3658 4.2808L12.7424 3.52475L12.1196 4.2808L12.7424 5.01982L13.3658 4.2808ZM11.5802 7.98652H13.9052C15.8601 7.98652 16.7397 6.79219 17.0054 5.7565H18.9944C19.2603 6.79219 20.1392 7.98652 22.0947 7.98652H24.4196C24.4196 7.98652 24.8264 7.43722 24.9284 7.16522C25.2956 6.18652 24.8264 5.73007 24.1418 5.73007L23.2568 6.52842L22.3718 5.73007C21.6872 5.73007 21.218 6.18652 21.5853 7.16522C21.632 7.29034 21.7442 7.47423 21.8504 7.63575C21.0255 7.52302 19.9724 6.96079 19.7414 5.7565C19.7414 5.7565 20.351 4.79248 20.504 4.4024C21.0536 2.99957 20.3516 2.4262 19.325 2.4262L17.9996 3.97709L16.6742 2.4262C15.6476 2.4262 14.9456 2.99957 15.4959 4.4024C15.6482 4.79248 16.2584 5.7565 16.2584 5.7565C16.0269 6.96079 14.9739 7.52302 14.1488 7.63575C14.2557 7.47423 14.3673 7.29034 14.414 7.16522C14.7806 6.18652 14.3126 5.73007 13.6275 5.73007L12.7424 6.52842L11.8574 5.73007C11.1722 5.73007 10.7042 6.18652 11.0709 7.16522C11.1728 7.43722 11.5802 7.98652 11.5802 7.98652ZM35.618 15.1605C35.1692 15.3867 32.5364 16.6144 29.1638 16.1604C29.1992 16 29.228 15.8384 29.2526 15.6769C31.4972 15.4096 33.3218 15.0307 34.4846 14.3868C35.81 13.6525 36.3896 11.8996 35.7207 10.5954C35.7032 10.5625 35.6552 10.5566 35.6312 10.5842C35.2646 11.0042 32.9595 13.5004 29.3276 14.2763C29.318 14.0878 29.3012 13.9016 29.276 13.7165C31.04 12.7208 32.762 11.5736 33.5823 10.5243C34.8218 8.9382 34.7078 6.91497 33.5283 5.88339C33.5031 5.86107 33.4622 5.86753 33.4448 5.89513C33.0716 6.50785 29.5784 12.128 25.7432 14.5543C25.7048 14.579 25.6532 14.6107 25.6016 14.6418C25.4918 14.7081 25.4797 14.8504 25.5734 14.9349C26.0156 15.3339 26.2905 15.8889 26.2905 16.5052C26.2905 17.5768 25.4607 18.4679 24.3638 18.6611C23.8065 18.7688 23.0019 18.7376 22.229 18.4832C22.1942 18.4721 22.1582 18.4948 22.1582 18.5295V21.9233C22.1582 21.978 22.2416 21.9915 22.2614 21.9391C22.7312 20.7002 24.1376 20.4371 24.7526 20.4371C24.974 21.7612 25.3694 22.858 25.883 23.4484C26.7194 24.4077 28.0851 24.3942 28.6773 23.731C28.6976 23.708 28.6916 23.6723 28.664 23.657C28.316 23.4578 26.3252 22.2412 25.9269 20.2473C26.084 20.1933 26.2376 20.1322 26.3846 20.0599C27.0272 21.1185 27.9627 22.0614 28.7156 22.4215C29.9805 23.0254 31.1384 22.7316 31.652 21.8475C31.6707 21.8164 31.6478 21.7776 31.61 21.7741C30.8275 21.7118 28.4264 21.0269 27.404 19.3579C27.521 19.251 27.6356 19.1394 27.7424 19.0208C28.8122 19.8314 30.3248 20.5481 31.4078 20.6944C32.6751 20.866 34.1108 20.4635 34.1457 18.9966C34.1462 18.9673 34.1198 18.9432 34.0886 18.9448C33.6381 18.972 30.6555 19.1012 28.5302 17.887C28.604 17.7476 28.6724 17.6056 28.7367 17.4604C28.7367 17.4604 31.9478 18.2158 33.4694 17.9657C34.9814 17.7172 35.867 16.5951 35.696 15.1994C35.6912 15.1646 35.6505 15.1441 35.618 15.1605ZM7.26264 17.4604C7.32684 17.6056 7.39584 17.7476 7.46964 17.887C5.34504 19.1006 2.36365 18.9725 1.91125 18.9448C1.87945 18.9432 1.85306 18.9684 1.85365 18.9972C1.88905 20.4635 3.32425 20.866 4.59145 20.6944C5.67384 20.5481 7.18703 19.8314 8.25687 19.0208C8.36423 19.1394 8.47824 19.251 8.59524 19.3579C7.57221 21.0269 5.17165 21.7118 4.38924 21.7741C4.35145 21.7776 4.32925 21.8164 4.34725 21.8475C4.86084 22.7316 6.01885 23.0254 7.28424 22.4215C8.03663 22.0614 8.97206 21.1185 9.61468 20.0599C9.76228 20.1322 9.91586 20.1933 10.0724 20.2473C9.67408 22.2412 7.68323 23.4578 7.33525 23.657C7.30824 23.6723 7.30164 23.708 7.32204 23.731C7.91424 24.3942 9.28043 24.4077 10.1169 23.4484C10.6304 22.858 11.0252 21.7612 11.2467 20.4371C11.8622 20.4371 13.268 20.7002 13.7378 21.9391C13.7582 21.9915 13.8417 21.978 13.8417 21.9233V18.5295C13.8417 18.4948 13.805 18.4721 13.7702 18.4832C12.9974 18.7376 12.1929 18.7688 11.636 18.6611C10.5387 18.4679 9.70886 17.5768 9.70886 16.5052C9.70886 15.8889 9.98424 15.3332 10.4258 14.9344C10.52 14.8503 10.5075 14.7081 10.3982 14.6418C10.346 14.6107 10.2945 14.579 10.2554 14.5543C6.42265 12.1292 2.93124 6.51314 2.55505 5.89631C2.53765 5.86753 2.49565 5.86166 2.46985 5.88398C1.29205 6.91614 1.17744 8.93873 2.41705 10.5243C3.23725 11.5736 4.95925 12.7208 6.72264 13.7165C6.69805 13.9016 6.68065 14.0878 6.67165 14.2763C3.04284 13.5009 0.739451 11.009 0.369252 10.586C0.344651 10.5572 0.295452 10.5631 0.278651 10.596C-0.389148 11.9007 0.190453 13.6525 1.51465 14.3868C2.67746 15.0307 4.50205 15.4096 6.74664 15.6769C6.77125 15.8384 6.80004 16 6.83544 16.1604C3.46645 16.6139 0.834851 15.3891 0.382451 15.161C0.348851 15.1441 0.308052 15.1652 0.303851 15.2005C0.133452 16.5962 1.01845 17.7172 2.53045 17.9657C4.05145 18.2158 7.26264 17.4604 7.26264 17.4604ZM28.1463 27.9377L26.9762 27.0213C26.5094 27.2981 26.1663 27.7374 26.033 28.2526C25.3292 28.3507 23.4104 27.9265 23.597 27.6451C25.7001 24.7008 24.0914 22.9479 22.1582 23.0454V25.0229C22.1582 25.6578 21.6014 26.1724 20.9157 26.1724H19.5806C18.623 26.1724 17.9996 27.1306 17.9996 27.1306C17.9996 27.1306 17.3762 26.1724 16.4186 26.1724H15.0837C14.3972 26.1724 13.8417 25.6578 13.8417 25.0229V23.0454C11.9084 22.9479 10.2987 24.7008 12.4023 27.6451C12.587 27.9236 10.6148 28.3695 9.68964 28.2568C9.44606 28.0053 9.09445 27.8467 8.70087 27.8467C8.52746 27.8467 8.36243 27.8784 8.21064 27.9342C8.21064 27.9342 4.57525 24.5081 4.50865 24.4747L4.53864 24.4053C4.74564 24.02 4.42884 23.5999 4.22845 23.6293C4.46124 23.3514 4.47204 22.1348 3.18085 21.8535C3.21865 22.0979 3.23785 22.5965 3.23785 22.5965C3.23785 22.5965 2.24125 22.0602 1.74085 22.5232C1.30105 23.0412 1.91125 23.9812 1.91125 23.9812C1.91125 23.9812 1.40125 23.9935 1.14985 23.9724C1.51945 25.2166 2.75905 25.1285 3.02725 24.883C3.00984 25.081 3.45805 25.3629 3.83784 25.1368L4.00465 25.0562C4.03405 25.0956 7.57468 28.4254 7.57468 28.4254C7.41204 28.6655 7.33464 28.9605 7.38804 29.2748C7.47205 29.7659 7.88305 30.1731 8.40806 30.2787C8.77882 30.3527 9.12744 30.2811 9.40708 30.1184L10.3442 30.9843C10.4276 31.0595 10.5405 31.1065 10.6664 31.0977C10.8957 31.0824 11.0673 30.8973 11.0498 30.6853C11.0427 30.5896 10.9934 30.5073 10.9257 30.445C10.9106 30.4285 9.97107 29.5603 9.97107 29.5603C10.7463 29.0193 12.1904 28.638 13.3891 28.638C13.5998 28.638 13.6988 28.4605 13.6262 28.2866C13.0832 26.9866 14.2508 26.045 15.4586 26.8115C15.9854 27.1458 16.5206 27.8044 16.9239 28.903C14.942 29.3805 12.4539 30.6964 11.9504 32.1328C11.7566 32.6873 12.3968 33.4434 13.1744 33.5955C13.2038 33.6019 13.232 33.5826 13.2374 33.5551C13.6437 31.4108 15.9602 29.8129 17.1656 29.5414C17.2262 29.703 17.2064 29.6507 17.2671 29.8118C15.9542 30.4297 14.681 31.7333 14.3174 33.283C14.1506 33.9927 14.9456 34.6324 15.602 34.8075C15.635 34.8163 15.6674 34.7933 15.6692 34.7616C15.794 32.8019 16.6634 31.1376 17.4422 30.3804C17.4632 30.5261 17.4795 30.6752 17.4902 30.8263C17.4902 30.8263 16.6928 33.038 16.6928 34.6518C16.6928 35.4026 17.8136 35.9266 17.9792 36C18.1862 35.9266 19.3065 35.4026 19.3065 34.6518C19.3065 33.038 18.5091 30.8263 18.5091 30.8263C18.5205 30.6752 18.5361 30.5261 18.5576 30.3804C19.3358 31.1376 20.2058 32.8013 20.33 34.7611C20.3318 34.7928 20.3648 34.8163 20.3973 34.8075C21.0543 34.6324 21.8486 33.9927 21.6825 33.283C21.3182 31.7333 20.0456 30.4297 18.7328 29.8118C18.7928 29.6507 18.773 29.703 18.8336 29.5414C20.0396 29.8129 22.3557 31.4108 22.7618 33.5551C22.7672 33.5826 22.796 33.6019 22.8248 33.5955C23.6018 33.4434 24.2432 32.6873 24.0483 32.1328C23.546 30.6964 21.0572 29.3805 19.0754 28.903C19.4792 27.8044 20.0144 27.1458 20.5412 26.8115C21.7484 26.045 22.916 26.9866 22.373 28.2866C22.3004 28.4605 22.3988 28.638 22.61 28.638C23.966 28.638 25.6364 29.1256 26.2976 29.7794C26.7199 30.4103 27.5006 30.814 28.3814 30.7276C29.3822 30.63 30.1982 29.8816 30.311 28.9564C30.4094 28.1457 29.9883 27.4178 29.3168 27.0213L28.1463 27.9377ZM19.5225 22.032C19.9394 21.8781 20.5928 22.0026 20.5706 22.6018C20.5652 22.7376 20.7566 22.7376 20.7704 22.5989C20.8952 21.7019 20.2862 21.4434 19.649 21.5486C19.5698 21.2402 19.505 20.9705 19.4312 20.7032C19.3724 20.487 19.3508 20.081 19.6022 20.081C19.7378 20.081 19.6832 20.4588 19.6706 20.6215C19.6593 20.7642 19.7108 20.8506 19.8272 20.8548C19.8998 20.8577 19.9905 20.7655 20.0445 20.7044C20.4092 20.2937 20.4938 19.6581 20.0666 19.3514C19.709 19.0942 18.8138 19.2856 18.5678 19.6522C18.5306 19.5141 18.353 19.2862 18.2679 19.1869C18.1851 19.09 18.1635 19.0236 18.278 18.9385C18.332 18.8973 18.4952 18.7357 18.4952 18.5689C18.4952 18.4702 18.4184 18.2881 18.1742 18.2881C17.9817 18.2881 17.7675 18.4209 17.7675 18.717C17.7675 18.7828 17.7836 18.8534 17.8262 18.929C17.7044 18.9092 17.3738 18.9173 17.2041 18.9591L19.5518 25.3723C20.2238 25.0421 20.7164 24.5193 20.7164 23.9584C20.7164 23.4801 20.009 23.6387 19.6652 24.0118C19.5549 23.4055 19.4564 22.8456 19.349 22.2876C19.3196 22.1337 19.3983 22.0785 19.5225 22.032ZM16.2026 17.6754L16.6958 19.0395C16.2735 19.1394 15.5942 19.4461 15.5942 19.852C15.5942 20.3924 16.5548 20.7443 17.1104 20.702C17.0828 20.8253 17.1146 20.9353 17.201 21.0357C16.9994 21.0357 16.6191 21.1291 16.4942 21.263C16.1997 20.9899 15.7389 20.8906 15.5198 21.0568C15.2997 21.2242 15.293 21.508 15.5229 21.8287C15.6831 22.0508 15.7431 22.27 15.5631 22.5272C16.2326 22.5272 15.986 21.6608 16.2482 21.6608C16.2141 21.8287 16.235 22.0232 16.3112 22.2388C16.3617 22.3821 16.3617 22.4838 16.2753 22.6218C16.0593 22.9655 15.7232 23.755 15.7688 24.4688C15.5492 24.4676 15.4376 24.4142 15.515 24.1157C15.5438 24.0047 15.4749 23.9254 15.3836 24.0623C15.2828 24.2133 15.2342 24.4712 15.2342 24.5816C15.2342 25.2173 15.995 25.3452 16.2853 25.2108C17.1254 26.0199 18.7755 25.8041 19.328 25.5326L16.4229 17.5979C16.3635 17.4481 16.1504 17.5197 16.2026 17.6754ZM16.1018 24.2114C16.0418 23.8849 16.4985 23.3009 17.0792 22.7376C16.9556 23.1047 17.0324 23.7374 17.2748 23.9553C16.8536 23.9553 16.3532 24.034 16.1018 24.2114Z" fill="#211E1E"/>
</g>
</svg>
