<svg preserveAspectRatio="none" width="100%" height="100%" overflow="visible" style="display: block;" viewBox="0 0 20 20" fill="none" xmlns="http://www.w3.org/2000/svg">
<g id="Star">
<path id="Shape" d="M8.84026 2.44836C9.26108 1.40523 10.7379 1.40523 11.1587 2.44836L12.7731 6.45012C12.8321 6.59631 12.9685 6.69671 13.1256 6.70953L17.1807 7.04041C18.2803 7.13013 18.733 8.49631 17.9046 9.22488L14.8275 11.9313C14.7137 12.0314 14.6632 12.1856 14.6958 12.3337L15.6798 16.8062C15.9256 17.9235 14.6658 18.7566 13.7339 18.0931L10.2412 15.6062C10.0965 15.5032 9.90246 15.5032 9.75781 15.6062L6.26502 18.0931C5.33314 18.7566 4.0734 17.9235 4.3192 16.8062L5.30318 12.3337C5.33577 12.1856 5.2853 12.0314 5.17142 11.9313L2.09422 9.2249C1.26584 8.49634 1.71856 7.13012 2.81809 7.04041L6.87334 6.70952C7.03046 6.6967 7.16689 6.59631 7.22586 6.45012L8.84026 2.44836Z" fill="var(--fill-0, #4D3B3B)" fill-opacity="0.2"/>
<path id="Subtract" d="M8.83988 2.44824C9.26066 1.4052 10.7373 1.40538 11.1582 2.44824L12 4.5332V16.8574L10.2412 15.6064C10.0966 15.5034 9.9025 15.5034 9.75785 15.6064L6.26468 18.0928C5.33291 18.7561 4.07393 17.9237 4.31937 16.8066L5.30277 12.334C5.33531 12.1861 5.28547 12.0318 5.17191 11.9316L2.09378 9.22461C1.26593 8.49597 1.71904 7.12974 2.81839 7.04004L6.87308 6.70996C7.03014 6.69715 7.16661 6.59631 7.22562 6.4502L8.83988 2.44824Z" fill="#FD9744"/>
</g>
</svg>
