<svg preserveAspectRatio="none" width="100%" height="100%" overflow="visible" style="display: block;" viewBox="0 0 138 22.8571" fill="none" xmlns="http://www.w3.org/2000/svg">
<g id="timeweb_logotype 2" clip-path="url(#clip0_0_68)">
<path id="Vector" d="M136.12 13.9599L127.943 5.90625L125.629 8.28401L131.337 13.9599L125.629 19.7126L127.943 22.0903L136.12 13.9599Z" fill="var(--fill-0, #DC6655)"/>
<path id="Vector_2" d="M6.14473 21.8594C4.52483 21.8594 3.13635 21.5525 2.28783 20.8622C0.899341 19.8651 0.359375 18.5612 0.359375 16.5669V1.68678H3.83059V6.28889H8.84456V9.66377H3.83059V15.9533C3.83059 17.1805 4.062 17.7942 4.67911 18.1777C5.0648 18.4078 5.75904 18.5612 6.83897 18.5612C7.53321 18.5612 8.84456 18.4845 8.84456 18.4845V21.6292C8.84456 21.6292 7.61035 21.8594 6.14473 21.8594ZM101.025 18.7146C99.4818 20.9389 97.2448 22.0895 94.2364 22.0895C91.768 22.0895 89.6852 21.3224 88.1425 19.7884C86.5997 18.2544 85.8283 16.3368 85.8283 14.0358C85.8283 11.7347 86.5997 9.81717 88.1425 8.28313C89.6852 6.7491 91.6137 5.98208 94.005 5.98208C96.242 5.98208 98.0933 6.7491 99.5589 8.35984C101.025 9.89387 101.719 11.8881 101.719 14.1125C101.719 14.9562 101.565 15.5698 101.565 15.5698H89.531C89.7624 16.6436 90.3023 17.4106 91.1509 18.0243C91.9994 18.6379 93.0793 18.9447 94.3135 18.9447C96.0106 18.9447 97.3219 18.3311 98.1704 17.1038L101.025 18.7146ZM89.531 12.5784H98.1704C97.939 11.4279 97.4762 10.5842 96.7048 9.97057C95.9334 9.35696 95.0078 9.05015 93.9278 9.05015C92.7708 9.05015 91.768 9.35696 90.9966 10.0473C90.3023 10.7376 89.7624 11.5813 89.531 12.5784ZM60.6813 18.7146C59.1386 20.9389 56.9016 22.0895 53.8932 22.0895C51.4248 22.0895 49.342 21.3224 47.7993 19.7884C46.2565 18.2544 45.4851 16.3368 45.4851 14.0358C45.4851 11.7347 46.2565 9.81717 47.7993 8.28313C49.342 6.7491 51.2705 5.98208 53.6618 5.98208C55.8988 5.98208 57.7501 6.7491 59.2157 8.35984C60.6813 9.89387 61.3756 11.8881 61.3756 14.1125C61.3756 14.9562 61.2213 15.5698 61.2213 15.5698H49.1878C49.4192 16.6436 49.9591 17.4106 50.8077 18.0243C51.6562 18.6379 52.7361 18.9447 53.9703 18.9447C55.6674 18.9447 56.9787 18.3311 57.8272 17.1038L60.6813 18.7146ZM49.1878 12.5784H57.8272C57.5958 11.4279 57.133 10.5842 56.3616 9.97057C55.5902 9.35696 54.6646 9.05015 53.5846 9.05015C52.4276 9.05015 51.4248 9.35696 50.6534 10.0473C49.882 10.7376 49.4192 11.5813 49.1878 12.5784ZM16.5584 2.83731C16.5584 1.68678 15.6327 0.766357 14.4756 0.766357C13.3186 0.766357 12.3929 1.68678 12.3929 2.83731C12.3929 3.98783 13.3186 4.90825 14.4756 4.90825C15.6327 4.90825 16.5584 3.98783 16.5584 2.83731ZM80.583 21.7059L84.5941 6.36559H81.0458L78.5774 17.1805H78.346L75.4918 6.36559H71.8663L68.9351 17.1805H68.7037L66.2353 6.36559H62.6869L66.6981 21.7059H70.7864L73.5634 10.891H73.7948L76.5718 21.7059H80.583ZM42.8624 21.7059V12.1949C42.8624 10.2774 42.3225 8.74335 41.2425 7.66952C40.1626 6.51899 38.7741 5.98208 37 5.98208C35.1486 5.98208 33.3745 6.9792 32.4488 8.58994H32.2174C31.446 6.9792 29.8261 5.98208 27.9748 5.98208C26.2006 5.98208 24.6579 6.8258 23.8093 8.20643H23.6551V6.36559H20.1067V21.7059H23.6551V13.1153C23.6551 11.8881 23.9636 10.891 24.6579 10.2007C25.275 9.58707 26.0463 9.20356 26.972 9.20356C27.8205 9.20356 28.5148 9.51036 28.9776 10.0473C29.4404 10.5842 29.6718 11.4279 29.6718 12.425V21.7059H33.2202V13.1153C33.2202 11.8881 33.5287 10.891 34.1458 10.2007C34.6858 9.58707 35.5343 9.28026 36.46 9.28026C37.3085 9.28026 38.0027 9.58706 38.5427 10.124C39.0827 10.6609 39.3141 11.5046 39.3141 12.5017V21.7827H42.8624V21.7059ZM16.2498 21.7059V6.36559H12.7015V21.7059H16.2498ZM118.766 19.7117C120.232 18.1777 121.003 16.2601 121.003 13.9591C121.003 11.7347 120.232 9.74047 118.766 8.20643C117.301 6.6724 115.449 5.90538 113.444 5.90538C111.438 5.90538 109.433 6.8258 108.198 8.20643H107.967V1.68678H104.419V21.6292H107.967V19.7117H108.198C109.433 21.169 111.515 22.0895 113.521 22.0895C115.604 22.0895 117.301 21.2457 118.766 19.7117ZM116.144 10.5842C117.069 11.5046 117.455 12.5784 117.455 13.9591C117.455 15.3397 116.992 16.4135 116.144 17.3339C115.218 18.2544 114.138 18.6379 112.75 18.6379C111.361 18.6379 110.281 18.1777 109.355 17.3339C108.43 16.4135 108.044 15.3397 108.044 13.9591C108.044 12.5784 108.507 11.5046 109.355 10.5842C110.281 9.66377 111.361 9.28026 112.75 9.28026C114.138 9.28026 115.218 9.74047 116.144 10.5842Z" fill="var(--fill-0, #4D3B3B)"/>
</g>
<defs>
<clipPath id="clip0_0_68">
<rect width="138" height="22.8571" fill="white"/>
</clipPath>
</defs>
</svg>
