<svg width="172" height="40" viewBox="0 0 172 40" fill="none" xmlns="http://www.w3.org/2000/svg">
<path d="M169.654 21.7361L159.462 11.6689L156.578 14.6411L163.693 21.7361L156.578 28.9269L159.462 31.899L169.654 21.7361Z" fill="#DC6655"/>
<path d="M7.65604 31.6094C5.63704 31.6094 3.90646 31.2259 2.84889 30.363C1.11831 29.1166 0.445312 27.4867 0.445312 24.9939V6.39369H4.77175V12.1463H11.0211V16.3649H4.77175V24.2269C4.77175 25.7609 5.06018 26.5279 5.82933 27.0073C6.31004 27.2949 7.17533 27.4867 8.52133 27.4867C9.38662 27.4867 11.0211 27.3908 11.0211 27.3908V31.3218C11.0211 31.3218 9.48276 31.6094 7.65604 31.6094ZM125.912 27.6784C123.989 30.4589 121.201 31.897 117.451 31.897C114.375 31.897 111.779 30.9383 109.856 29.0207C107.933 27.1032 106.972 24.7062 106.972 21.8299C106.972 18.9536 107.933 16.5567 109.856 14.6391C111.779 12.7216 114.183 11.7628 117.163 11.7628C119.951 11.7628 122.259 12.7216 124.085 14.735C125.912 16.6526 126.777 19.1454 126.777 21.9258C126.777 22.9805 126.585 23.7475 126.585 23.7475H111.587C111.875 25.0898 112.548 26.0485 113.606 26.8155C114.663 27.5826 116.009 27.9661 117.548 27.9661C119.663 27.9661 121.297 27.1991 122.355 25.665L125.912 27.6784ZM111.587 20.0083H122.355C122.066 18.5701 121.489 17.5155 120.528 16.7484C119.567 15.9814 118.413 15.5979 117.067 15.5979C115.625 15.5979 114.375 15.9814 113.413 16.8443C112.548 17.7072 111.875 18.7619 111.587 20.0083ZM75.6292 27.6784C73.7063 30.4589 70.9182 31.897 67.1686 31.897C64.092 31.897 61.4962 30.9383 59.5733 29.0207C57.6504 27.1032 56.689 24.7062 56.689 21.8299C56.689 18.9536 57.6504 16.5567 59.5733 14.6391C61.4962 12.7216 63.8997 11.7628 66.8802 11.7628C69.6683 11.7628 71.9758 12.7216 73.8025 14.735C75.6292 16.6526 76.4945 19.1454 76.4945 21.9258C76.4945 22.9805 76.3022 23.7475 76.3022 23.7475H61.3039C61.5923 25.0898 62.2653 26.0485 63.3229 26.8155C64.3805 27.5826 65.7265 27.9661 67.2648 27.9661C69.3799 27.9661 71.0143 27.1991 72.0719 25.665L75.6292 27.6784ZM61.3039 20.0083H72.0719C71.7835 18.5701 71.2066 17.5155 70.2452 16.7484C69.2838 15.9814 68.1301 15.5979 66.784 15.5979C65.3419 15.5979 64.092 15.9814 63.1306 16.8443C62.1692 17.7072 61.5923 18.7619 61.3039 20.0083ZM20.6354 7.83185C20.6354 6.39369 19.4816 5.24316 18.0395 5.24316C16.5974 5.24316 15.4436 6.39369 15.4436 7.83185C15.4436 9.27001 16.5974 10.4205 18.0395 10.4205C19.4816 10.4205 20.6354 9.27001 20.6354 7.83185ZM100.434 31.4177L105.434 12.2422H101.011L97.9344 25.7609H97.646L94.0887 12.2422H89.57L85.9165 25.7609H85.6281L82.5515 12.2422H78.1289L83.1284 31.4177H88.224L91.6851 17.899H91.9735L95.4347 31.4177H100.434ZM53.4202 31.4177V19.5289C53.4202 17.1319 52.7472 15.2144 51.4011 13.8721C50.0551 12.434 48.3246 11.7628 46.1133 11.7628C43.8058 11.7628 41.5946 13.0092 40.4408 15.0226H40.1524C39.191 13.0092 37.172 11.7628 34.8645 11.7628C32.6532 11.7628 30.7304 12.8175 29.6728 14.5433H29.4805V12.2422H25.0579V31.4177H29.4805V20.6794C29.4805 19.1454 29.8651 17.899 30.7304 17.0361C31.4995 16.269 32.461 15.7897 33.6147 15.7897C34.6723 15.7897 35.5375 16.1732 36.1144 16.8443C36.6913 17.5155 36.9797 18.5701 36.9797 19.8165V31.4177H41.4023V20.6794C41.4023 19.1454 41.7868 17.899 42.556 17.0361C43.229 16.269 44.2866 15.8855 45.4403 15.8855C46.4978 15.8855 47.3631 16.269 48.0361 16.9402C48.7091 17.6113 48.9976 18.666 48.9976 19.9124V31.5135H53.4202V31.4177ZM20.2508 31.4177V12.2422H15.8282V31.4177H20.2508ZM148.025 28.9248C149.852 27.0073 150.813 24.6104 150.813 21.7341C150.813 18.9536 149.852 16.4608 148.025 14.5433C146.198 12.6257 143.891 11.6669 141.391 11.6669C138.891 11.6669 136.392 12.8175 134.853 14.5433H134.565V6.39369H130.142V31.3218H134.565V28.9248H134.853C136.392 30.7465 138.988 31.897 141.487 31.897C144.083 31.897 146.198 30.8424 148.025 28.9248ZM144.756 17.5155C145.91 18.666 146.391 20.0083 146.391 21.7341C146.391 23.4598 145.814 24.8021 144.756 25.9527C143.602 27.1032 142.256 27.5826 140.526 27.5826C138.795 27.5826 137.449 27.0073 136.296 25.9527C135.142 24.8021 134.661 23.4598 134.661 21.7341C134.661 20.0083 135.238 18.666 136.296 17.5155C137.449 16.3649 138.795 15.8855 140.526 15.8855C142.256 15.8855 143.602 16.4608 144.756 17.5155Z" fill="#211E1E"/>
</svg>
